<svg xmlns="http://www.w3.org/2000/svg" viewBox="0 0 360 480">
	<style>
		rect {
			fill: #FAFAFA;
		}

		line {
			stroke: rgb(0 0 0 / 20%);
		}

		svg>line:first-of-type {
			stroke: rgb(0 0 0 / 38%);
		}

		g>line {
			stroke: #FF4081;
		}

		text {
			font-size: 12px;
			text-anchor: middle;
		}

		svg>text {
			fill: rgb(0 0 0 / 38%);
		}

		@media (prefers-color-scheme: dark) {
			rect {
				fill: #424242;
			}

			line {
				stroke: rgb(255 255 255 / 50%);
			}

			svg>line:first-of-type {
				stroke: rgb(255 255 255 / 70%);
			}

			svg>text {
				fill: #FFFFFF;
			}
		}
	</style>
	<rect x="92" y="252" width="8" height="150" />
	<rect x="140" y="78" width="8" height="150" />
	<line x1="84" x2="84" y1="78" y2="402" />
	<line x1="92" x2="92" y1="386" y2="402" />
	<line x1="100" x2="100" y1="78" y2="402" stroke-dasharray="4" />
	<line x1="108" x2="108" y1="386" y2="402" />
	<line x1="116" x2="116" y1="378" y2="402" />
	<line x1="124" x2="124" y1="386" y2="402" />
	<line x1="132" x2="132" y1="386" y2="402" />
	<line x1="140" x2="140" y1="386" y2="402" />
	<line x1="148" x2="148" y1="78" y2="402" stroke-dasharray="4" />
	<line x1="156" x2="156" y1="386" y2="402" />
	<line x1="164" x2="164" y1="386" y2="402" />
	<line x1="172" x2="172" y1="386" y2="402" />
	<line x1="180" x2="180" y1="378" y2="402" />
	<line x1="188" x2="188" y1="386" y2="402" />
	<line x1="196" x2="196" y1="386" y2="402" />
	<line x1="204" x2="204" y1="386" y2="402" />
	<line x1="212" x2="212" y1="378" y2="402" />
	<line x1="220" x2="220" y1="386" y2="402" />
	<line x1="228" x2="228" y1="386" y2="402" />
	<line x1="236" x2="236" y1="386" y2="402" />
	<line x1="244" x2="244" y1="378" y2="402" />
	<line x1="252" x2="252" y1="386" y2="402" />
	<line x1="260" x2="260" y1="386" y2="402" />
	<line x1="268" x2="268" y1="386" y2="402" />
	<line x1="276" x2="276" y1="378" y2="402" />
	<text x="100" y="434">2dp</text>
	<text x="148" y="434">8dp</text>
	<g>
		<line x1="100" x2="100" y1="38" y2="54" />
		<line x1="100" x2="148" y1="46" y2="46" />
		<line x1="148" x2="148" y1="38" y2="54" />
		<text x="124" y="66" fill="#FF4081">6dp</text>
	</g>
</svg>