<?xml version="1.0" encoding="utf-8"?>
<!-- Generator: Adobe Illustrator 24.1.1, SVG Export Plug-In . SVG Version: 6.00 Build 0)  -->
<svg id="图层_1" xmlns="http://www.w3.org/2000/svg" xmlns:xlink="http://www.w3.org/1999/xlink" x="0px" y="0px"
	 viewBox="0 0 720 960" style="enable-background:new 0 0 720 960;" xml:space="preserve">
<style type="text/css">
	.st0{fill:none;stroke:#FF4081;stroke-width:2;stroke-miterlimit:10;}
	.st1{opacity:0.2;fill:#FFFFFF;enable-background:new    ;}
</style>
<line class="st0" x1="685.2999878" y1="26.0999756" x2="714.7000122" y2="19.9000244"/>
<line class="st0" x1="685.2000122" y1="63.5999756" x2="714.7999878" y2="58.4000244"/>
<line class="st0" x1="685.0999756" y1="101.0999756" x2="714.9000244" y2="96.9000244"/>
<line class="st0" x1="685" y1="138" x2="715" y2="136"/>
<line class="st0" x1="685" y1="175.7999878" x2="715" y2="174.2000122"/>
<line class="st0" x1="685" y1="213.5" x2="715" y2="212.5"/>
<line class="st0" x1="685" y1="250" x2="715" y2="252"/>
<line class="st0" x1="685.0999756" y1="287.7000122" x2="714.9000244" y2="290.2999878"/>
<line class="st0" x1="685.2000122" y1="324.4000244" x2="714.7999878" y2="329.5999756"/>
<line class="st0" x1="685.5" y1="361.0999756" x2="714.5" y2="368.9000244"/>
<line class="st0" x1="686" y1="397.5999756" x2="714" y2="408.4000244"/>
<line class="st0" x1="686.5" y1="434.4000244" x2="713.5" y2="447.5999756"/>
<line class="st0" x1="687.2999878" y1="471.0999756" x2="712.7000122" y2="486.9000244"/>
<line class="st0" x1="688.2999878" y1="507.5999756" x2="711.7000122" y2="526.4000244"/>
<line class="st0" x1="689.4000244" y1="544.4000244" x2="710.5999756" y2="565.5999756"/>
<line class="st0" x1="690.7999878" y1="581.1999512" x2="709.2000122" y2="604.8000488"/>
<line class="st0" x1="691.5999756" y1="618.5999756" x2="708.4000244" y2="643.4000244"/>
<line class="st0" x1="693" y1="655.8000488" x2="707" y2="682.1999512"/>
<line class="st0" x1="694.0999756" y1="693.1999512" x2="705.9000244" y2="720.8000488"/>
<line class="st0" x1="695.0999756" y1="730.8000488" x2="704.9000244" y2="759.1999512"/>
<line class="st0" x1="696.5999756" y1="768.4000244" x2="703.4000244" y2="797.5999756"/>
<line class="st0" x1="698.2000122" y1="806.0999756" x2="701.7999878" y2="835.9000244"/>
<line class="st0" x1="699.2000122" y1="844" x2="700.7999878" y2="874"/>
<line class="st0" x1="700" y1="882" x2="700" y2="912"/>
<line class="st0" x1="700.7999878" y1="920" x2="699.2000122" y2="950"/>
<line class="st0" x1="645.5" y1="26.9000244" x2="674.5" y2="19.0999756"/>
<line class="st0" x1="645.4000244" y1="64.4000244" x2="674.5999756" y2="57.5999756"/>
<line class="st0" x1="645.2000122" y1="101.5999756" x2="674.7999878" y2="96.4000244"/>
<line class="st0" x1="645.2000122" y1="139.2999878" x2="674.7999878" y2="134.7000122"/>
<line class="st0" x1="645.0999756" y1="176.2999878" x2="674.9000244" y2="173.7000122"/>
<line class="st0" x1="645" y1="213.7999878" x2="675" y2="212.2000122"/>
<line class="st0" x1="645" y1="251" x2="675" y2="251"/>
<line class="st0" x1="645" y1="288.2000122" x2="675" y2="289.7999878"/>
<line class="st0" x1="645.0999756" y1="324.9000244" x2="674.9000244" y2="329.0999756"/>
<line class="st0" x1="645.2999878" y1="362.0999756" x2="674.7000122" y2="367.9000244"/>
<line class="st0" x1="645.7000122" y1="398.4000244" x2="674.2999878" y2="407.5999756"/>
<line class="st0" x1="646.4000244" y1="434.7000122" x2="673.5999756" y2="447.2999878"/>
<line class="st0" x1="647.0999756" y1="471.3000488" x2="672.9000244" y2="486.6999512"/>
<line class="st0" x1="648" y1="508" x2="672" y2="526"/>
<line class="st0" x1="649.2000122" y1="544.5999756" x2="670.7999878" y2="565.4000244"/>
<line class="st0" x1="650.4000244" y1="581.5" x2="669.5999756" y2="604.5"/>
<line class="st0" x1="651.7999878" y1="618.4000244" x2="668.2000122" y2="643.5999756"/>
<line class="st0" x1="653.4000244" y1="655.5" x2="666.5999756" y2="682.5"/>
<line class="st0" x1="654.4000244" y1="693.0999756" x2="665.5999756" y2="720.9000244"/>
<line class="st0" x1="656.0999756" y1="730.5" x2="663.9000244" y2="759.5"/>
<line class="st0" x1="657.7000122" y1="768.1999512" x2="662.2999878" y2="797.8000488"/>
<line class="st0" x1="659" y1="806" x2="661" y2="836"/>
<line class="st0" x1="660" y1="844" x2="660" y2="874"/>
<line class="st0" x1="661.2999878" y1="882.0999756" x2="658.7000122" y2="911.9000244"/>
<line class="st0" x1="662.2999878" y1="920.1999512" x2="657.7000122" y2="949.8000488"/>
<line class="st0" x1="605.7000122" y1="27.4000244" x2="634.2999878" y2="18.5999756"/>
<line class="st0" x1="605.5999756" y1="65.0999756" x2="634.4000244" y2="56.9000244"/>
<line class="st0" x1="605.4000244" y1="102.5999756" x2="634.5999756" y2="95.4000244"/>
<line class="st0" x1="605.4000244" y1="140.4000244" x2="634.5999756" y2="133.5999756"/>
<line class="st0" x1="605.2000122" y1="177.2999878" x2="634.7999878" y2="172.7000122"/>
<line class="st0" x1="605.0999756" y1="214.7999878" x2="634.9000244" y2="211.2000122"/>
<line class="st0" x1="605" y1="251.7999878" x2="635" y2="250.2000122"/>
<line class="st0" x1="605" y1="289" x2="635" y2="289"/>
<line class="st0" x1="605" y1="327" x2="635" y2="327"/>
<line class="st0" x1="605" y1="365" x2="635" y2="365"/>
<line class="st0" x1="605.4000244" y1="399.4000244" x2="634.5999756" y2="406.5999756"/>
<line class="st0" x1="606.0999756" y1="435.4000244" x2="633.9000244" y2="446.5999756"/>
<line class="st0" x1="607" y1="471.5" x2="633" y2="486.5"/>
<line class="st0" x1="607.7000122" y1="508.4000244" x2="632.2999878" y2="525.5999756"/>
<line class="st0" x1="609" y1="544.8000488" x2="631" y2="565.1999512"/>
<line class="st0" x1="610.5999756" y1="581.3000488" x2="629.4000244" y2="604.6999512"/>
<line class="st0" x1="612.2999878" y1="618.0999756" x2="627.7000122" y2="643.9000244"/>
<line class="st0" x1="613.9000244" y1="655.3000488" x2="626.0999756" y2="682.6999512"/>
<line class="st0" x1="615.9000244" y1="692.5999756" x2="624.0999756" y2="721.4000244"/>
<line class="st0" x1="617.4000244" y1="730.1999512" x2="622.5999756" y2="759.8000488"/>
<line class="st0" x1="619.2000122" y1="768" x2="620.7999878" y2="798"/>
<line class="st0" x1="620" y1="806" x2="620" y2="836"/>
<line class="st0" x1="621" y1="844" x2="619" y2="874"/>
<line class="st0" x1="622.0999756" y1="882.0999756" x2="617.9000244" y2="911.9000244"/>
<line class="st0" x1="623.4000244" y1="920.4000244" x2="616.5999756" y2="949.5999756"/>
<line class="st0" x1="566" y1="28.4000244" x2="594" y2="17.5999756"/>
<line class="st0" x1="565.9000244" y1="66.0999756" x2="594.0999756" y2="55.9000244"/>
<line class="st0" x1="565.7999878" y1="103.9000244" x2="594.2000122" y2="94.0999756"/>
<line class="st0" x1="565.7000122" y1="141.5999756" x2="594.2999878" y2="132.4000244"/>
<line class="st0" x1="565.5" y1="178.9000244" x2="594.5" y2="171.0999756"/>
<line class="st0" x1="565.2999878" y1="216.0999756" x2="594.7000122" y2="209.9000244"/>
<line class="st0" x1="565.2000122" y1="253.2999878" x2="594.7999878" y2="248.7000122"/>
<line class="st0" x1="565" y1="290" x2="595" y2="288"/>
<line class="st0" x1="565" y1="327" x2="595" y2="327"/>
<line class="st0" x1="565" y1="365" x2="595" y2="365"/>
<line class="st0" x1="565.2999878" y1="399.9000244" x2="594.7000122" y2="406.0999756"/>
<line class="st0" x1="565.7000122" y1="436.4000244" x2="594.2999878" y2="445.5999756"/>
<line class="st0" x1="566.5999756" y1="472.1999512" x2="593.4000244" y2="485.8000488"/>
<line class="st0" x1="567.7000122" y1="508.4000244" x2="592.2999878" y2="525.5999756"/>
<line class="st0" x1="569.2000122" y1="544.5999756" x2="590.7999878" y2="565.4000244"/>
<line class="st0" x1="570.7999878" y1="581.1999512" x2="589.2000122" y2="604.8000488"/>
<line class="st0" x1="573.2000122" y1="617.5999756" x2="586.7999878" y2="644.4000244"/>
<line class="st0" x1="574.9000244" y1="654.9000244" x2="585.0999756" y2="683.0999756"/>
<line class="st0" x1="576.4000244" y1="692.4000244" x2="583.5999756" y2="721.5999756"/>
<line class="st0" x1="578.4000244" y1="730.0999756" x2="581.5999756" y2="759.9000244"/>
<line class="st0" x1="580" y1="768" x2="580" y2="798"/>
<line class="st0" x1="581.5999756" y1="806.0999756" x2="578.4000244" y2="835.9000244"/>
<line class="st0" x1="583.4000244" y1="844.4000244" x2="576.5999756" y2="873.5999756"/>
<line class="st0" x1="583.9000244" y1="882.5" x2="576.0999756" y2="911.5"/>
<line class="st0" x1="585.4000244" y1="921" x2="574.5999756" y2="949"/>
<line class="st0" x1="526.5999756" y1="29.7999878" x2="553.4000244" y2="16.2000122"/>
<line class="st0" x1="526.5" y1="67.5999756" x2="553.5" y2="54.4000244"/>
<line class="st0" x1="526.2999878" y1="105.0999756" x2="553.7000122" y2="92.9000244"/>
<line class="st0" x1="526.0999756" y1="142.5999756" x2="553.9000244" y2="131.4000244"/>
<line class="st0" x1="525.7999878" y1="179.9000244" x2="554.2000122" y2="170.0999756"/>
<line class="st0" x1="525.5999756" y1="217.0999756" x2="554.4000244" y2="208.9000244"/>
<line class="st0" x1="525.4000244" y1="254.4000244" x2="554.5999756" y2="247.5999756"/>
<line class="st0" x1="525.2000122" y1="291.5999756" x2="554.7999878" y2="286.4000244"/>
<line class="st0" x1="525.0999756" y1="328.2999878" x2="554.9000244" y2="325.7000122"/>
<line class="st0" x1="525" y1="365" x2="555" y2="365"/>
<line class="st0" x1="525.0999756" y1="401.2000122" x2="554.9000244" y2="404.7999878"/>
<line class="st0" x1="525.4000244" y1="437.4000244" x2="554.5999756" y2="444.5999756"/>
<line class="st0" x1="526.2999878" y1="472.9000244" x2="553.7000122" y2="485.0999756"/>
<line class="st0" x1="527.2999878" y1="509.0999756" x2="552.7000122" y2="524.9000244"/>
<line class="st0" x1="529.4000244" y1="544.4000244" x2="550.5999756" y2="565.5999756"/>
<line class="st0" x1="531.5999756" y1="580.5999756" x2="548.4000244" y2="605.4000244"/>
<line class="st0" x1="533.7000122" y1="617.4000244" x2="546.2999878" y2="644.5999756"/>
<line class="st0" x1="536.4000244" y1="654.4000244" x2="543.5999756" y2="683.5999756"/>
<line class="st0" x1="538.4000244" y1="692.0999756" x2="541.5999756" y2="721.9000244"/>
<line class="st0" x1="540" y1="730" x2="540" y2="760"/>
<line class="st0" x1="541.7999878" y1="768.0999756" x2="538.2000122" y2="797.9000244"/>
<line class="st0" x1="542.5999756" y1="806.1999512" x2="537.4000244" y2="835.8000488"/>
<line class="st0" x1="544.0999756" y1="844.5999756" x2="535.9000244" y2="873.4000244"/>
<line class="st0" x1="545.0999756" y1="882.9000244" x2="534.9000244" y2="911.0999756"/>
<line class="st0" x1="546.0999756" y1="921.3000488" x2="533.9000244" y2="948.6999512"/>
<line class="st0" x1="487" y1="30.5" x2="513" y2="15.5"/>
<line class="st0" x1="486.8999939" y1="68.2999878" x2="513.0999756" y2="53.7000122"/>
<line class="st0" x1="486.7999878" y1="106" x2="513.2000122" y2="92"/>
<line class="st0" x1="486.6000061" y1="143.7999878" x2="513.4000244" y2="130.2000122"/>
<line class="st0" x1="486.2999878" y1="181.0999756" x2="513.7000122" y2="168.9000244"/>
<line class="st0" x1="486.2000122" y1="218.9000244" x2="513.7999878" y2="207.0999756"/>
<line class="st0" x1="485.7999878" y1="255.9000244" x2="514.2000122" y2="246.0999756"/>
<line class="st0" x1="485.6000061" y1="293.0999756" x2="514.4000244" y2="284.9000244"/>
<line class="st0" x1="485.3999939" y1="330.4000244" x2="514.5999756" y2="323.5999756"/>
<line class="st0" x1="485.1000061" y1="366.7999878" x2="514.9000244" y2="363.2000122"/>
<line class="st0" x1="485" y1="403.2999878" x2="515" y2="402.7000122"/>
<line class="st0" x1="485.1000061" y1="438.9000244" x2="514.9000244" y2="443.0999756"/>
<line class="st0" x1="485.7000122" y1="474.5999756" x2="514.2999878" y2="483.4000244"/>
<line class="st0" x1="487" y1="509.5" x2="513" y2="524.5"/>
<line class="st0" x1="489.6000061" y1="544.1999512" x2="510.3999939" y2="565.8000488"/>
<line class="st0" x1="491.6000061" y1="580.5999756" x2="508.3999939" y2="605.4000244"/>
<line class="st0" x1="494.6000061" y1="617" x2="505.3999939" y2="645"/>
<line class="st0" x1="497.3999939" y1="654.1999512" x2="502.6000061" y2="683.8000488"/>
<line class="st0" x1="500.5" y1="692" x2="499.5" y2="722"/>
<line class="st0" x1="502.2999878" y1="730.1999512" x2="497.7000122" y2="759.8000488"/>
<line class="st0" x1="503.3999939" y1="768.4000244" x2="496.6000061" y2="797.5999756"/>
<line class="st0" x1="505.3999939" y1="807" x2="494.6000061" y2="835"/>
<line class="st0" x1="505.3999939" y1="845" x2="494.6000061" y2="873"/>
<line class="st0" x1="506.1000061" y1="883.3000488" x2="493.8999939" y2="910.6999512"/>
<line class="st0" x1="507.2999878" y1="921.9000244" x2="492.7000122" y2="948.0999756"/>
<line class="st0" x1="447.1000061" y1="30.7000122" x2="472.8999939" y2="15.2999878"/>
<line class="st0" x1="447" y1="68.5" x2="473" y2="53.5"/>
<line class="st0" x1="446.8999939" y1="106.2999878" x2="473.1000061" y2="91.7000122"/>
<line class="st0" x1="446.7999878" y1="144" x2="473.2000122" y2="130"/>
<line class="st0" x1="446.6000061" y1="181.7999878" x2="473.3999939" y2="168.2000122"/>
<line class="st0" x1="446.5" y1="219.5999756" x2="473.5" y2="206.4000244"/>
<line class="st0" x1="446.3999939" y1="257.2999878" x2="473.6000061" y2="244.7000122"/>
<line class="st0" x1="446.2999878" y1="295.0999756" x2="473.7000122" y2="282.9000244"/>
<line class="st0" x1="445.7000122" y1="331.5999756" x2="474.2999878" y2="322.4000244"/>
<line class="st0" x1="445.6000061" y1="369.0999756" x2="474.3999939" y2="360.9000244"/>
<line class="st0" x1="445.2000122" y1="405.2999878" x2="474.7999878" y2="400.7000122"/>
<line class="st0" x1="445" y1="441" x2="475" y2="441"/>
<line class="st0" x1="445.2000122" y1="476.4000244" x2="474.7999878" y2="481.5999756"/>
<line class="st0" x1="446.5" y1="510.4000244" x2="473.5" y2="523.5999756"/>
<line class="st0" x1="449.2000122" y1="544.5999756" x2="470.7999878" y2="565.4000244"/>
<line class="st0" x1="453.7000122" y1="579.4000244" x2="466.2999878" y2="606.5999756"/>
<line class="st0" x1="456.8999939" y1="616.3000488" x2="463.1000061" y2="645.6999512"/>
<line class="st0" x1="459.7000122" y1="654" x2="460.2999878" y2="684"/>
<line class="st0" x1="462.6000061" y1="692.1999512" x2="457.3999939" y2="721.8000488"/>
<line class="st0" x1="465.3999939" y1="731" x2="454.6000061" y2="759"/>
<line class="st0" x1="453" y1="796.1999512" x2="467" y2="769.8000488"/>
<line class="st0" x1="452.2999878" y1="833.9000244" x2="467.7000122" y2="808.0999756"/>
<line class="st0" x1="451.7999878" y1="871.5999756" x2="468.2000122" y2="846.4000244"/>
<line class="st0" x1="467.7000122" y1="884.0999756" x2="452.2999878" y2="909.9000244"/>
<line class="st0" x1="468.7999878" y1="922.9000244" x2="451.2000122" y2="947.0999756"/>
<line class="st0" x1="407.8999939" y1="31.7999878" x2="432.1000061" y2="14.2000122"/>
<line class="st0" x1="408" y1="70" x2="432" y2="52"/>
<line class="st0" x1="407.7000122" y1="107.5999756" x2="432.2999878" y2="90.4000244"/>
<line class="st0" x1="407.3999939" y1="145.2000122" x2="432.6000061" y2="128.7999878"/>
<line class="st0" x1="407.2999878" y1="182.9000244" x2="432.7000122" y2="167.0999756"/>
<line class="st0" x1="407.1000061" y1="220.7000122" x2="432.8999939" y2="205.2999878"/>
<line class="st0" x1="407" y1="258.5" x2="433" y2="243.5"/>
<line class="st0" x1="406.8999939" y1="296.2999878" x2="433.1000061" y2="281.7000122"/>
<line class="st0" x1="406.7999878" y1="334" x2="433.2000122" y2="320"/>
<line class="st0" x1="406.3999939" y1="371.2999878" x2="433.6000061" y2="358.7000122"/>
<line class="st0" x1="405.8999939" y1="408.0999756" x2="434.1000061" y2="397.9000244"/>
<line class="st0" x1="405.3999939" y1="444.4000244" x2="434.6000061" y2="437.5999756"/>
<line class="st0" x1="405" y1="479" x2="435" y2="479"/>
<line class="st0" x1="405.7000122" y1="512.5999756" x2="434.2999878" y2="521.4000244"/>
<line class="st0" x1="409" y1="544.8000488" x2="431" y2="565.1999512"/>
<line class="st0" x1="414.6000061" y1="579" x2="425.3999939" y2="607"/>
<line class="st0" x1="419.7000122" y1="616" x2="420.2999878" y2="646"/>
<line class="st0" x1="423.6000061" y1="654.4000244" x2="416.3999939" y2="683.5999756"/>
<line class="st0" x1="412.2999878" y1="719.9000244" x2="427.7000122" y2="694.0999756"/>
<line class="st0" x1="411.3999939" y1="757.3000488" x2="428.6000061" y2="732.6999512"/>
<line class="st0" x1="410.6000061" y1="794.6999512" x2="429.3999939" y2="771.3000488"/>
<line class="st0" x1="411" y1="833" x2="429" y2="809"/>
<line class="st0" x1="411" y1="871" x2="429" y2="847"/>
<line class="st0" x1="410.2000122" y1="908.3000488" x2="429.7999878" y2="885.6999512"/>
<line class="st0" x1="410.2000122" y1="946.3000488" x2="429.7999878" y2="923.6999512"/>
<line class="st0" x1="368.7000122" y1="32.7999878" x2="391.2999878" y2="13.2000122"/>
<line class="st0" x1="368.8999939" y1="71" x2="391.1000061" y2="51"/>
<line class="st0" x1="369" y1="109.2000122" x2="391" y2="88.7999878"/>
<line class="st0" x1="369.2000122" y1="147.4000244" x2="390.7999878" y2="126.5999756"/>
<line class="st0" x1="369.3999939" y1="185.5999756" x2="390.6000061" y2="164.4000244"/>
<line class="st0" x1="390.7999878" y1="202.5999756" x2="369.2000122" y2="223.4000244"/>
<line class="st0" x1="368.2999878" y1="260.4000244" x2="391.7000122" y2="241.5999756"/>
<line class="st0" x1="368.2000122" y1="298.2000122" x2="391.7999878" y2="279.7999878"/>
<line class="st0" x1="368" y1="336" x2="392" y2="318"/>
<line class="st0" x1="367.8999939" y1="373.7999878" x2="392.1000061" y2="356.2000122"/>
<line class="st0" x1="367.3999939" y1="411.2000122" x2="392.6000061" y2="394.7999878"/>
<line class="st0" x1="366.6000061" y1="447.7999878" x2="393.3999939" y2="434.2000122"/>
<line class="st0" x1="365.7999878" y1="483.9000244" x2="394.2000122" y2="474.0999756"/>
<line class="st0" x1="365" y1="517" x2="395" y2="517"/>
<line class="st0" x1="368.7000122" y1="545.1999512" x2="391.2999878" y2="564.8000488"/>
<line class="st0" x1="372.5" y1="606" x2="387.5" y2="580"/>
<line class="st0" x1="369.2000122" y1="641.4000244" x2="390.7999878" y2="620.5999756"/>
<line class="st0" x1="369.2000122" y1="679.4000244" x2="390.7999878" y2="658.5999756"/>
<line class="st0" x1="369.3999939" y1="717.5999756" x2="390.6000061" y2="696.4000244"/>
<line class="st0" x1="369.2000122" y1="755.4000244" x2="390.7999878" y2="734.5999756"/>
<line class="st0" x1="369.3999939" y1="793.5999756" x2="390.6000061" y2="772.4000244"/>
<line class="st0" x1="369.3999939" y1="831.5999756" x2="390.6000061" y2="810.4000244"/>
<line class="st0" x1="369.2000122" y1="869.4000244" x2="390.7999878" y2="848.5999756"/>
<line class="st0" x1="369" y1="907.1999512" x2="391" y2="886.8000488"/>
<line class="st0" x1="369.3999939" y1="945.5999756" x2="390.6000061" y2="924.4000244"/>
<line class="st0" x1="329.3999939" y1="33.5999756" x2="350.6000061" y2="12.4000244"/>
<line class="st0" x1="329.6000061" y1="71.7999878" x2="350.3999939" y2="50.2000122"/>
<line class="st0" x1="329.7999878" y1="110" x2="350.2000122" y2="88"/>
<line class="st0" x1="330" y1="148.0999756" x2="350" y2="125.9000244"/>
<line class="st0" x1="330.2000122" y1="186.2999878" x2="349.7999878" y2="163.7000122"/>
<line class="st0" x1="330.3999939" y1="224.5" x2="349.6000061" y2="201.5"/>
<line class="st0" x1="330.2000122" y1="262.2999878" x2="349.7999878" y2="239.7000122"/>
<line class="st0" x1="330" y1="300.0999756" x2="350" y2="277.9000244"/>
<line class="st0" x1="329.7999878" y1="338" x2="350.2000122" y2="316"/>
<line class="st0" x1="329.6000061" y1="375.7999878" x2="350.3999939" y2="354.2000122"/>
<line class="st0" x1="331.3999939" y1="415.2999878" x2="348.6000061" y2="390.7000122"/>
<line class="st0" x1="331.7999878" y1="453.5999756" x2="348.2000122" y2="428.4000244"/>
<line class="st0" x1="334.8999939" y1="493.0999756" x2="345.1000061" y2="464.9000244"/>
<line class="st0" x1="340.5" y1="502" x2="339.5" y2="532"/>
<line class="st0" x1="332.2999878" y1="542.0999756" x2="347.7000122" y2="567.9000244"/>
<line class="st0" x1="325.1000061" y1="591.4000244" x2="354.8999939" y2="594.5999756"/>
<line class="st0" x1="325.7000122" y1="635.4000244" x2="354.2999878" y2="626.5999756"/>
<line class="st0" x1="326.5" y1="675.5999756" x2="353.5" y2="662.4000244"/>
<line class="st0" x1="327.2999878" y1="714.9000244" x2="352.7000122" y2="699.0999756"/>
<line class="st0" x1="327.3999939" y1="753.1999512" x2="352.6000061" y2="736.8000488"/>
<line class="st0" x1="327.8999939" y1="791.8000488" x2="352.1000061" y2="774.1999512"/>
<line class="st0" x1="328.2999878" y1="830.4000244" x2="351.7000122" y2="811.5999756"/>
<line class="st0" x1="328.2999878" y1="868.4000244" x2="351.7000122" y2="849.5999756"/>
<line class="st0" x1="328.2999878" y1="906.4000244" x2="351.7000122" y2="887.5999756"/>
<line class="st0" x1="328.2999878" y1="944.4000244" x2="351.7000122" y2="925.5999756"/>
<line class="st0" x1="306.2999878" y1="9.4000244" x2="293.7000122" y2="36.5999756"/>
<line class="st0" x1="306.1000061" y1="47.2999878" x2="293.8999939" y2="74.7000122"/>
<line class="st0" x1="306.2999878" y1="85.4000244" x2="293.7000122" y2="112.5999756"/>
<line class="st0" x1="306.6000061" y1="123.5" x2="293.3999939" y2="150.5"/>
<line class="st0" x1="306.7999878" y1="161.5999756" x2="293.2000122" y2="188.4000244"/>
<line class="st0" x1="307" y1="199.7999878" x2="293" y2="226.2000122"/>
<line class="st0" x1="307.2999878" y1="237.9000244" x2="292.7000122" y2="264.0999756"/>
<line class="st0" x1="307.5" y1="276" x2="292.5" y2="302"/>
<line class="st0" x1="307.7000122" y1="314.0999756" x2="292.2999878" y2="339.9000244"/>
<line class="st0" x1="306.7999878" y1="351.5999756" x2="293.2000122" y2="378.4000244"/>
<line class="st0" x1="304.8999939" y1="388.7999878" x2="295.1000061" y2="417.2000122"/>
<line class="st0" x1="303.3999939" y1="426.4000244" x2="296.6000061" y2="455.5999756"/>
<line class="st0" x1="301.2999878" y1="464.0999756" x2="298.7000122" y2="493.9000244"/>
<line class="st0" x1="295.3999939" y1="502.6999512" x2="304.6000061" y2="531.3000488"/>
<line class="st0" x1="289.6000061" y1="544.1999512" x2="310.3999939" y2="565.8000488"/>
<line class="st0" x1="285.8999939" y1="587.9000244" x2="314.1000061" y2="598.0999756"/>
<line class="st0" x1="285" y1="631" x2="315" y2="631"/>
<line class="st0" x1="285.2000122" y1="671.5999756" x2="314.7999878" y2="666.4000244"/>
<line class="st0" x1="285.7000122" y1="711.5999756" x2="314.2999878" y2="702.4000244"/>
<line class="st0" x1="286.1000061" y1="750.5999756" x2="313.8999939" y2="739.4000244"/>
<line class="st0" x1="286.7999878" y1="790" x2="313.2000122" y2="776"/>
<line class="st0" x1="286.8999939" y1="828.3000488" x2="313.1000061" y2="813.6999512"/>
<line class="st0" x1="287.2999878" y1="866.9000244" x2="312.7000122" y2="851.0999756"/>
<line class="st0" x1="287.3999939" y1="905.1999512" x2="312.6000061" y2="888.8000488"/>
<line class="st0" x1="287.3999939" y1="943.1999512" x2="312.6000061" y2="926.8000488"/>
<line class="st0" x1="268.3999939" y1="10.5999756" x2="251.6000061" y2="35.4000244"/>
<line class="st0" x1="268.2000122" y1="48.4000244" x2="251.7999878" y2="73.5999756"/>
<line class="st0" x1="267.8999939" y1="86.2999878" x2="252.1000061" y2="111.7000122"/>
<line class="st0" x1="267.7000122" y1="124.0999756" x2="252.2999878" y2="149.9000244"/>
<line class="st0" x1="267.2999878" y1="161.9000244" x2="252.7000122" y2="188.0999756"/>
<line class="st0" x1="266.7999878" y1="199.5999756" x2="253.2000122" y2="226.4000244"/>
<line class="st0" x1="266.2999878" y1="237.4000244" x2="253.7000122" y2="264.5999756"/>
<line class="st0" x1="265.6000061" y1="275.0999756" x2="254.3999939" y2="302.9000244"/>
<line class="st0" x1="265.3999939" y1="313" x2="254.6000061" y2="341"/>
<line class="st0" x1="264.1000061" y1="350.5999756" x2="255.8999939" y2="379.4000244"/>
<line class="st0" x1="263.3999939" y1="388.4000244" x2="256.6000061" y2="417.5999756"/>
<line class="st0" x1="261" y1="426" x2="259" y2="456"/>
<line class="st0" x1="256.8999939" y1="464.3000488" x2="263.1000061" y2="493.6999512"/>
<line class="st0" x1="253" y1="503.8000488" x2="267" y2="530.1999512"/>
<line class="st0" x1="249.6000061" y1="544.1999512" x2="270.3999939" y2="565.8000488"/>
<line class="st0" x1="246.7999878" y1="586" x2="273.2000122" y2="600"/>
<line class="st0" x1="245.3999939" y1="627.4000244" x2="274.6000061" y2="634.5999756"/>
<line class="st0" x1="245" y1="669" x2="275" y2="669"/>
<line class="st0" x1="245.1000061" y1="708.8000488" x2="274.8999939" y2="705.1999512"/>
<line class="st0" x1="245.5" y1="748.9000244" x2="274.5" y2="741.0999756"/>
<line class="st0" x1="245.7000122" y1="787.5999756" x2="274.2999878" y2="778.4000244"/>
<line class="st0" x1="245.8999939" y1="826.0999756" x2="274.1000061" y2="815.9000244"/>
<line class="st0" x1="246.3999939" y1="865.3000488" x2="273.6000061" y2="852.6999512"/>
<line class="st0" x1="246.6000061" y1="903.8000488" x2="273.3999939" y2="890.1999512"/>
<line class="st0" x1="246.8999939" y1="942.3000488" x2="273.1000061" y2="927.6999512"/>
<line class="st0" x1="227.5" y1="10" x2="212.5" y2="36"/>
<line class="st0" x1="227.2999878" y1="47.9000244" x2="212.7000122" y2="74.0999756"/>
<line class="st0" x1="227" y1="85.7999878" x2="213" y2="112.2000122"/>
<line class="st0" x1="226.7999878" y1="123.5999756" x2="213.2000122" y2="150.4000244"/>
<line class="st0" x1="226.6000061" y1="161.5" x2="213.3999939" y2="188.5"/>
<line class="st0" x1="225.8999939" y1="199.2000122" x2="214.1000061" y2="226.7999878"/>
<line class="st0" x1="225.3999939" y1="237" x2="214.6000061" y2="265"/>
<line class="st0" x1="224.6000061" y1="274.7000122" x2="215.3999939" y2="303.2999878"/>
<line class="st0" x1="223.6000061" y1="312.4000244" x2="216.3999939" y2="341.5999756"/>
<line class="st0" x1="221.6000061" y1="350.0999756" x2="218.3999939" y2="379.9000244"/>
<line class="st0" x1="220" y1="388" x2="220" y2="418"/>
<line class="st0" x1="217.3999939" y1="426.2000122" x2="222.6000061" y2="455.7999878"/>
<line class="st0" x1="215.3999939" y1="464.6999512" x2="224.6000061" y2="493.3000488"/>
<line class="st0" x1="212.1000061" y1="504.3000488" x2="227.8999939" y2="529.6999512"/>
<line class="st0" x1="209.6000061" y1="544.1999512" x2="230.3999939" y2="565.8000488"/>
<line class="st0" x1="207.0999756" y1="585.3000488" x2="232.8999939" y2="600.6999512"/>
<line class="st0" x1="205.9000244" y1="625.9000244" x2="234.1000061" y2="636.0999756"/>
<line class="st0" x1="205.0999756" y1="666.9000244" x2="234.8999939" y2="671.0999756"/>
<line class="st0" x1="205" y1="707" x2="235" y2="707"/>
<line class="st0" x1="205.0999756" y1="746.5999756" x2="234.8999939" y2="743.4000244"/>
<line class="st0" x1="205.2999878" y1="786.0999756" x2="234.7000122" y2="779.9000244"/>
<line class="st0" x1="205.5999756" y1="825.0999756" x2="234.3999939" y2="816.9000244"/>
<line class="st0" x1="205.7999878" y1="863.9000244" x2="234.2000122" y2="854.0999756"/>
<line class="st0" x1="206" y1="902.4000244" x2="234" y2="891.5999756"/>
<line class="st0" x1="206.2000122" y1="940.9000244" x2="233.7999878" y2="929.0999756"/>
<line class="st0" x1="186.0999756" y1="9.2999878" x2="173.9000244" y2="36.7000122"/>
<line class="st0" x1="185.9000244" y1="47.2000122" x2="174.0999756" y2="74.7999878"/>
<line class="st0" x1="185.5999756" y1="85.0999756" x2="174.4000244" y2="112.9000244"/>
<line class="st0" x1="185.0999756" y1="122.9000244" x2="174.9000244" y2="151.0999756"/>
<line class="st0" x1="184.5999756" y1="160.7000122" x2="175.4000244" y2="189.2999878"/>
<line class="st0" x1="184.0999756" y1="198.5999756" x2="175.9000244" y2="227.4000244"/>
<line class="st0" x1="183.5999756" y1="236.4000244" x2="176.4000244" y2="265.5999756"/>
<line class="st0" x1="182.5999756" y1="274.2000122" x2="177.4000244" y2="303.7999878"/>
<line class="st0" x1="181.5999756" y1="312.0999756" x2="178.4000244" y2="341.9000244"/>
<line class="st0" x1="180" y1="350" x2="180" y2="380"/>
<line class="st0" x1="178.4000244" y1="388.0999756" x2="181.5999756" y2="417.9000244"/>
<line class="st0" x1="175.9000244" y1="426.5999756" x2="184.0999756" y2="455.4000244"/>
<line class="st0" x1="174.0999756" y1="465.1999512" x2="185.9000244" y2="492.8000488"/>
<line class="st0" x1="171.7999878" y1="504.4000244" x2="188.2000122" y2="529.5999756"/>
<line class="st0" x1="169.4000244" y1="544.4000244" x2="190.5999756" y2="565.5999756"/>
<line class="st0" x1="167.4000244" y1="584.8000488" x2="192.5999756" y2="601.1999512"/>
<line class="st0" x1="166.2999878" y1="624.9000244" x2="193.7000122" y2="637.0999756"/>
<line class="st0" x1="165.5999756" y1="664.9000244" x2="194.4000244" y2="673.0999756"/>
<line class="st0" x1="165.0999756" y1="705.4000244" x2="194.9000244" y2="708.5999756"/>
<line class="st0" x1="165" y1="745" x2="195" y2="745"/>
<line class="st0" x1="165" y1="784" x2="195" y2="782"/>
<line class="st0" x1="165.2000122" y1="823.3000488" x2="194.7999878" y2="818.6999512"/>
<line class="st0" x1="165.5" y1="862.9000244" x2="194.5" y2="855.0999756"/>
<line class="st0" x1="165.5" y1="900.9000244" x2="194.5" y2="893.0999756"/>
<line class="st0" x1="165.7000122" y1="939.4000244" x2="194.2999878" y2="930.5999756"/>
<line class="st0" x1="145.5999756" y1="9.0999756" x2="134.4000244" y2="36.9000244"/>
<line class="st0" x1="145.0999756" y1="46.9000244" x2="134.9000244" y2="75.0999756"/>
<line class="st0" x1="144.5999756" y1="84.7000122" x2="135.4000244" y2="113.2999878"/>
<line class="st0" x1="144.0999756" y1="122.5999756" x2="135.9000244" y2="151.4000244"/>
<line class="st0" x1="143.5999756" y1="160.4000244" x2="136.4000244" y2="189.5999756"/>
<line class="st0" x1="143.0999756" y1="198.2999878" x2="136.9000244" y2="227.7000122"/>
<line class="st0" x1="141.7999878" y1="236.0999756" x2="138.2000122" y2="265.9000244"/>
<line class="st0" x1="141" y1="274" x2="139" y2="304"/>
<line class="st0" x1="140" y1="312" x2="140" y2="342"/>
<line class="st0" x1="138.7000122" y1="350.0999756" x2="141.2999878" y2="379.9000244"/>
<line class="st0" x1="137.4000244" y1="388.2000122" x2="142.5999756" y2="417.7999878"/>
<line class="st0" x1="134.9000244" y1="426.9000244" x2="145.0999756" y2="455.0999756"/>
<line class="st0" x1="133.2000122" y1="465.5999756" x2="146.7999878" y2="492.4000244"/>
<line class="st0" x1="131.0999756" y1="504.9000244" x2="148.9000244" y2="529.0999756"/>
<line class="st0" x1="129.5999756" y1="544.1999512" x2="150.4000244" y2="565.8000488"/>
<line class="st0" x1="128" y1="584" x2="152" y2="602"/>
<line class="st0" x1="126.7999878" y1="624" x2="153.2000122" y2="638"/>
<line class="st0" x1="125.9000244" y1="663.9000244" x2="154.0999756" y2="674.0999756"/>
<line class="st0" x1="125.4000244" y1="703.5999756" x2="154.5999756" y2="710.4000244"/>
<line class="st0" x1="125" y1="744" x2="155" y2="746"/>
<line class="st0" x1="125" y1="783" x2="155" y2="783"/>
<line class="st0" x1="125" y1="822" x2="155" y2="820"/>
<line class="st0" x1="125.2000122" y1="861.3000488" x2="154.7999878" y2="856.6999512"/>
<line class="st0" x1="125.2999878" y1="900.0999756" x2="154.7000122" y2="893.9000244"/>
<line class="st0" x1="125.5" y1="938.9000244" x2="154.5" y2="931.0999756"/>
<line class="st0" x1="104.4000244" y1="8.7000122" x2="95.5999756" y2="37.2999878"/>
<line class="st0" x1="104.5999756" y1="46.7000122" x2="95.4000244" y2="75.2999878"/>
<line class="st0" x1="103.5999756" y1="84.4000244" x2="96.4000244" y2="113.5999756"/>
<line class="st0" x1="103.4000244" y1="122.4000244" x2="96.5999756" y2="151.5999756"/>
<line class="st0" x1="102.0999756" y1="160.0999756" x2="97.9000244" y2="189.9000244"/>
<line class="st0" x1="101.5999756" y1="198.0999756" x2="98.4000244" y2="227.9000244"/>
<line class="st0" x1="101" y1="236" x2="99" y2="266"/>
<line class="st0" x1="100" y1="274" x2="100" y2="304"/>
<line class="st0" x1="99.2000122" y1="312" x2="100.7999878" y2="342"/>
<line class="st0" x1="97.0999756" y1="350.2999878" x2="102.9000244" y2="379.7000122"/>
<line class="st0" x1="95.9000244" y1="388.5999756" x2="104.0999756" y2="417.4000244"/>
<line class="st0" x1="93.9000244" y1="427.2999878" x2="106.0999756" y2="454.7000122"/>
<line class="st0" x1="92.0999756" y1="466.3000488" x2="107.9000244" y2="491.6999512"/>
<line class="st0" x1="90.9000244" y1="505.0999756" x2="109.0999756" y2="528.9000244"/>
<line class="st0" x1="88.9000244" y1="545" x2="111.0999756" y2="565"/>
<line class="st0" x1="88.2000122" y1="583.8000488" x2="111.7999878" y2="602.1999512"/>
<line class="st0" x1="87" y1="623.5" x2="113" y2="638.5"/>
<line class="st0" x1="86.2000122" y1="663.0999756" x2="113.7999878" y2="674.9000244"/>
<line class="st0" x1="85.5999756" y1="702.9000244" x2="114.4000244" y2="711.0999756"/>
<line class="st0" x1="85.2999878" y1="742.0999756" x2="114.7000122" y2="747.9000244"/>
<line class="st0" x1="85" y1="782" x2="115" y2="784"/>
<line class="st0" x1="85" y1="821" x2="115" y2="821"/>
<line class="st0" x1="85.0999756" y1="860.3000488" x2="114.9000244" y2="857.6999512"/>
<line class="st0" x1="85.0999756" y1="899.0999756" x2="114.9000244" y2="894.9000244"/>
<line class="st0" x1="85.2999878" y1="937.9000244" x2="114.7000122" y2="932.0999756"/>
<line class="st0" x1="63.5999756" y1="8.4000244" x2="56.4000244" y2="37.5999756"/>
<line class="st0" x1="63.4000244" y1="46.4000244" x2="56.5999756" y2="75.5999756"/>
<line class="st0" x1="63.0999756" y1="84.2999878" x2="56.9000244" y2="113.7000122"/>
<line class="st0" x1="62.2999878" y1="122.2000122" x2="57.7000122" y2="151.7999878"/>
<line class="st0" x1="61.5999756" y1="160.0999756" x2="58.4000244" y2="189.9000244"/>
<line class="st0" x1="60.7999878" y1="198" x2="59.2000122" y2="228"/>
<line class="st0" x1="60" y1="236" x2="60" y2="266"/>
<line class="st0" x1="59" y1="274" x2="61" y2="304"/>
<line class="st0" x1="57.4000244" y1="312.2000122" x2="62.5999756" y2="341.7999878"/>
<line class="st0" x1="56.4000244" y1="350.4000244" x2="63.5999756" y2="379.5999756"/>
<line class="st0" x1="54.9000244" y1="388.9000244" x2="65.0999756" y2="417.0999756"/>
<line class="st0" x1="53.4000244" y1="427.5" x2="66.5999756" y2="454.5"/>
<line class="st0" x1="52.2999878" y1="466.0999756" x2="67.7000122" y2="491.9000244"/>
<line class="st0" x1="50.7999878" y1="505.1999512" x2="69.2000122" y2="528.8000488"/>
<line class="st0" x1="49.2000122" y1="544.5999756" x2="70.7999878" y2="565.4000244"/>
<line class="st0" x1="47.7000122" y1="584.4000244" x2="72.2999878" y2="601.5999756"/>
<line class="st0" x1="47.0999756" y1="623.3000488" x2="72.9000244" y2="638.6999512"/>
<line class="st0" x1="46.5" y1="662.4000244" x2="73.5" y2="675.5999756"/>
<line class="st0" x1="46.2000122" y1="701.0999756" x2="73.7999878" y2="712.9000244"/>
<line class="st0" x1="45.4000244" y1="741.4000244" x2="74.5999756" y2="748.5999756"/>
<line class="st0" x1="45.2000122" y1="780.6999512" x2="74.7999878" y2="785.3000488"/>
<line class="st0" x1="45.0999756" y1="819.4000244" x2="74.9000244" y2="822.5999756"/>
<line class="st0" x1="45" y1="859" x2="75" y2="859"/>
<line class="st0" x1="45" y1="898" x2="75" y2="896"/>
<line class="st0" x1="45.0999756" y1="936.3000488" x2="74.9000244" y2="933.6999512"/>
<line class="st0" x1="23.0999756" y1="8.2999878" x2="16.9000244" y2="37.7000122"/>
<line class="st0" x1="22.5999756" y1="46.2000122" x2="17.4000244" y2="75.7999878"/>
<line class="st0" x1="22.2999878" y1="84.2000122" x2="17.7000122" y2="113.7999878"/>
<line class="st0" x1="21" y1="122" x2="19" y2="152"/>
<line class="st0" x1="20.7999878" y1="160" x2="19.2000122" y2="190"/>
<line class="st0" x1="20" y1="198" x2="20" y2="228"/>
<line class="st0" x1="19.2000122" y1="236" x2="20.7999878" y2="266"/>
<line class="st0" x1="18.7000122" y1="274.0999756" x2="21.2999878" y2="303.9000244"/>
<line class="st0" x1="17.4000244" y1="312.2000122" x2="22.5999756" y2="341.7999878"/>
<line class="st0" x1="16.4000244" y1="350.4000244" x2="23.5999756" y2="379.5999756"/>
<line class="st0" x1="14.9000244" y1="388.9000244" x2="25.0999756" y2="417.0999756"/>
<line class="st0" x1="13.9000244" y1="427.2999878" x2="26.0999756" y2="454.7000122"/>
<line class="st0" x1="12.0999756" y1="466.3000488" x2="27.9000244" y2="491.6999512"/>
<line class="st0" x1="10.5999756" y1="505.3000488" x2="29.4000244" y2="528.6999512"/>
<line class="st0" x1="9.2000122" y1="544.5999756" x2="30.7999878" y2="565.4000244"/>
<line class="st0" x1="8.2999878" y1="583.5999756" x2="31.7000122" y2="602.4000244"/>
<line class="st0" x1="7.0999756" y1="623.3000488" x2="32.9000244" y2="638.6999512"/>
<line class="st0" x1="6.7999878" y1="662" x2="33.2000122" y2="676"/>
<line class="st0" x1="6.2000122" y1="701.0999756" x2="33.7999878" y2="712.9000244"/>
<line class="st0" x1="5.7000122" y1="740.5999756" x2="34.2999878" y2="749.4000244"/>
<line class="st0" x1="5.2999878" y1="779.9000244" x2="34.7000122" y2="786.0999756"/>
<line class="st0" x1="5.2000122" y1="818.6999512" x2="34.7999878" y2="823.3000488"/>
<line class="st0" x1="5" y1="858.5" x2="35" y2="859.5"/>
<line class="st0" x1="5" y1="897" x2="35" y2="897"/>
<line class="st0" x1="5" y1="936" x2="35" y2="934"/>
<circle class="st1" cx="360" cy="574" r="133"/>
</svg>
