<?xml version="1.0" encoding="utf-8"?>
<!-- Generator: Adobe Illustrator 24.1.1, SVG Export Plug-In . SVG Version: 6.00 Build 0)  -->
<svg id="图层_1" xmlns="http://www.w3.org/2000/svg" xmlns:xlink="http://www.w3.org/1999/xlink" x="0px" y="0px"
	 viewBox="0 0 1520 720" style="enable-background:new 0 0 1520 720;" xml:space="preserve">
<style type="text/css">
	.st0{fill:none;stroke:#FF4081;stroke-width:2;stroke-miterlimit:10;}
	.st1{opacity:0.2;fill:#FFFFFF;enable-background:new    ;}
</style>
<g>
	<line class="st0" x1="26.4" y1="33.1" x2="11.6" y2="6.9"/>
	<line class="st0" x1="64.2" y1="33.2" x2="49.8" y2="6.8"/>
	<line class="st0" x1="101.9" y1="33.3" x2="88.1" y2="6.7"/>
	<line class="st0" x1="139.3" y1="33.6" x2="126.7" y2="6.4"/>
	<line class="st0" x1="177.3" y1="33.6" x2="164.7" y2="6.4"/>
	<line class="st0" x1="215.2" y1="33.6" x2="202.8" y2="6.4"/>
	<line class="st0" x1="253.1" y1="33.7" x2="240.9" y2="6.3"/>
	<line class="st0" x1="291" y1="33.8" x2="279" y2="6.2"/>
	<line class="st0" x1="328.9" y1="33.8" x2="317.1" y2="6.2"/>
	<line class="st0" x1="366.4" y1="34" x2="355.6" y2="6"/>
	<line class="st0" x1="404.1" y1="34.1" x2="393.9" y2="5.9"/>
	<line class="st0" x1="441.9" y1="34.2" x2="432.1" y2="5.8"/>
	<line class="st0" x1="479.4" y1="34.3" x2="470.6" y2="5.7"/>
	<line class="st0" x1="517.1" y1="34.4" x2="508.9" y2="5.6"/>
	<line class="st0" x1="554.9" y1="34.5" x2="547.1" y2="5.5"/>
	<line class="st0" x1="592.1" y1="34.7" x2="585.9" y2="5.3"/>
	<line class="st0" x1="629.6" y1="34.8" x2="624.4" y2="5.2"/>
	<line class="st0" x1="667.1" y1="34.9" x2="662.9" y2="5.1"/>
	<line class="st0" x1="704" y1="35" x2="702" y2="5"/>
	<line class="st0" x1="741.8" y1="35" x2="740.2" y2="5"/>
	<line class="st0" x1="779.5" y1="35" x2="778.5" y2="5"/>
	<line class="st0" x1="816" y1="35" x2="818" y2="5"/>
	<line class="st0" x1="853.7" y1="34.9" x2="856.3" y2="5.1"/>
	<line class="st0" x1="890.4" y1="34.8" x2="895.6" y2="5.2"/>
	<line class="st0" x1="927.1" y1="34.5" x2="934.9" y2="5.5"/>
	<line class="st0" x1="963.6" y1="34" x2="974.4" y2="6"/>
	<line class="st0" x1="1000.4" y1="33.5" x2="1013.6" y2="6.5"/>
	<line class="st0" x1="1037.1" y1="32.7" x2="1052.9" y2="7.3"/>
	<line class="st0" x1="1073.6" y1="31.7" x2="1092.4" y2="8.3"/>
	<line class="st0" x1="1110.4" y1="30.6" x2="1131.6" y2="9.4"/>
	<line class="st0" x1="1147.2" y1="29.2" x2="1170.8" y2="10.8"/>
	<line class="st0" x1="1184.6" y1="28.4" x2="1209.4" y2="11.6"/>
	<line class="st0" x1="1221.8" y1="27" x2="1248.2" y2="13"/>
	<line class="st0" x1="1259.2" y1="25.9" x2="1286.8" y2="14.1"/>
	<line class="st0" x1="1296.8" y1="24.9" x2="1325.2" y2="15.1"/>
	<line class="st0" x1="1334.4" y1="23.4" x2="1363.6" y2="16.6"/>
	<line class="st0" x1="1372.1" y1="21.8" x2="1401.9" y2="18.2"/>
	<line class="st0" x1="1410" y1="20.8" x2="1440" y2="19.2"/>
	<line class="st0" x1="1448" y1="20" x2="1478" y2="20"/>
	<line class="st0" x1="1486" y1="19.2" x2="1516" y2="20.8"/>
</g>
<g>
	<line class="st0" x1="26.5" y1="73" x2="11.5" y2="47"/>
	<line class="st0" x1="64.3" y1="73.1" x2="49.7" y2="46.9"/>
	<line class="st0" x1="102" y1="73.2" x2="88" y2="46.8"/>
	<line class="st0" x1="139.8" y1="73.4" x2="126.2" y2="46.6"/>
	<line class="st0" x1="177.8" y1="73.4" x2="164.2" y2="46.6"/>
	<line class="st0" x1="215.7" y1="73.4" x2="202.3" y2="46.6"/>
	<line class="st0" x1="253.6" y1="73.5" x2="240.4" y2="46.5"/>
	<line class="st0" x1="291.6" y1="73.5" x2="278.4" y2="46.5"/>
	<line class="st0" x1="329.1" y1="73.7" x2="316.9" y2="46.3"/>
	<line class="st0" x1="366.6" y1="73.9" x2="355.4" y2="46.1"/>
	<line class="st0" x1="404.6" y1="73.9" x2="393.4" y2="46.1"/>
	<line class="st0" x1="442.4" y1="74" x2="431.6" y2="46"/>
	<line class="st0" x1="479.9" y1="74.2" x2="470.1" y2="45.8"/>
	<line class="st0" x1="517.6" y1="74.3" x2="508.4" y2="45.7"/>
	<line class="st0" x1="555.1" y1="74.4" x2="546.9" y2="45.6"/>
	<line class="st0" x1="592.9" y1="74.5" x2="585.1" y2="45.5"/>
	<line class="st0" x1="630.4" y1="74.6" x2="623.6" y2="45.4"/>
	<line class="st0" x1="667.6" y1="74.8" x2="662.4" y2="45.2"/>
	<line class="st0" x1="705.3" y1="74.8" x2="700.7" y2="45.2"/>
	<line class="st0" x1="742.3" y1="74.9" x2="739.7" y2="45.1"/>
	<line class="st0" x1="779.8" y1="75" x2="778.2" y2="45"/>
	<line class="st0" x1="817" y1="75" x2="817" y2="45"/>
	<line class="st0" x1="854.2" y1="75" x2="855.8" y2="45"/>
	<line class="st0" x1="890.9" y1="74.9" x2="895.1" y2="45.1"/>
	<line class="st0" x1="928.1" y1="74.7" x2="933.9" y2="45.3"/>
	<line class="st0" x1="964.4" y1="74.3" x2="973.6" y2="45.7"/>
	<line class="st0" x1="1000.7" y1="73.6" x2="1013.3" y2="46.4"/>
	<line class="st0" x1="1037.3" y1="72.9" x2="1052.7" y2="47.1"/>
	<line class="st0" x1="1074" y1="72" x2="1092" y2="48"/>
	<line class="st0" x1="1110.6" y1="70.8" x2="1131.4" y2="49.2"/>
	<line class="st0" x1="1147.5" y1="69.6" x2="1170.5" y2="50.4"/>
	<line class="st0" x1="1184.4" y1="68.2" x2="1209.6" y2="51.8"/>
	<line class="st0" x1="1221.5" y1="66.6" x2="1248.5" y2="53.4"/>
	<line class="st0" x1="1259.1" y1="65.6" x2="1286.9" y2="54.4"/>
	<line class="st0" x1="1296.5" y1="63.9" x2="1325.5" y2="56.1"/>
	<line class="st0" x1="1334.2" y1="62.3" x2="1363.8" y2="57.7"/>
	<line class="st0" x1="1372" y1="61" x2="1402" y2="59"/>
	<line class="st0" x1="1410" y1="60" x2="1440" y2="60"/>
	<line class="st0" x1="1448.1" y1="58.7" x2="1477.9" y2="61.3"/>
	<line class="st0" x1="1486.2" y1="57.7" x2="1515.8" y2="62.3"/>
</g>
<g>
	<line class="st0" x1="26.8" y1="112.8" x2="11.2" y2="87.2"/>
	<line class="st0" x1="64.7" y1="112.9" x2="49.3" y2="87.1"/>
	<line class="st0" x1="102.6" y1="112.9" x2="87.4" y2="87.1"/>
	<line class="st0" x1="140.5" y1="113" x2="125.5" y2="87"/>
	<line class="st0" x1="178.3" y1="113.1" x2="163.7" y2="86.9"/>
	<line class="st0" x1="216.2" y1="113.2" x2="201.8" y2="86.8"/>
	<line class="st0" x1="254" y1="113.2" x2="240" y2="86.8"/>
	<line class="st0" x1="291.9" y1="113.3" x2="278.1" y2="86.7"/>
	<line class="st0" x1="329.8" y1="113.4" x2="316.2" y2="86.6"/>
	<line class="st0" x1="367.6" y1="113.5" x2="354.4" y2="86.5"/>
	<line class="st0" x1="405.1" y1="113.7" x2="392.9" y2="86.3"/>
	<line class="st0" x1="442.9" y1="113.8" x2="431.1" y2="86.2"/>
	<line class="st0" x1="480.9" y1="113.8" x2="469.1" y2="86.2"/>
	<line class="st0" x1="518.4" y1="114" x2="507.6" y2="86"/>
	<line class="st0" x1="555.9" y1="114.2" x2="546.1" y2="85.8"/>
	<line class="st0" x1="593.4" y1="114.3" x2="584.6" y2="85.7"/>
	<line class="st0" x1="631.1" y1="114.4" x2="622.9" y2="85.6"/>
	<line class="st0" x1="668.6" y1="114.6" x2="661.4" y2="85.4"/>
	<line class="st0" x1="706.4" y1="114.6" x2="699.6" y2="85.4"/>
	<line class="st0" x1="743.3" y1="114.8" x2="738.7" y2="85.2"/>
	<line class="st0" x1="780.8" y1="114.9" x2="777.2" y2="85.1"/>
	<line class="st0" x1="817.8" y1="115" x2="816.2" y2="85"/>
	<line class="st0" x1="855" y1="115" x2="855" y2="85"/>
	<line class="st0" x1="893" y1="115" x2="893" y2="85"/>
	<line class="st0" x1="931" y1="115" x2="931" y2="85"/>
	<line class="st0" x1="965.4" y1="114.6" x2="972.6" y2="85.4"/>
	<line class="st0" x1="1001.4" y1="113.9" x2="1012.6" y2="86.1"/>
	<line class="st0" x1="1037.5" y1="113" x2="1052.5" y2="87"/>
	<line class="st0" x1="1074.4" y1="112.3" x2="1091.6" y2="87.7"/>
	<line class="st0" x1="1110.8" y1="111" x2="1131.2" y2="89"/>
	<line class="st0" x1="1147.3" y1="109.4" x2="1170.7" y2="90.6"/>
	<line class="st0" x1="1184.1" y1="107.7" x2="1209.9" y2="92.3"/>
	<line class="st0" x1="1221.3" y1="106.1" x2="1248.7" y2="93.9"/>
	<line class="st0" x1="1258.6" y1="104.1" x2="1287.4" y2="95.9"/>
	<line class="st0" x1="1296.2" y1="102.6" x2="1325.8" y2="97.4"/>
	<line class="st0" x1="1334" y1="100.8" x2="1364" y2="99.2"/>
	<line class="st0" x1="1372" y1="100" x2="1402" y2="100"/>
	<line class="st0" x1="1410" y1="99" x2="1440" y2="101"/>
	<line class="st0" x1="1448.1" y1="97.9" x2="1477.9" y2="102.1"/>
	<line class="st0" x1="1486.4" y1="96.6" x2="1515.6" y2="103.4"/>
</g>
<g>
	<line class="st0" x1="27.6" y1="152.3" x2="10.4" y2="127.7"/>
	<line class="st0" x1="65.5" y1="152.4" x2="48.5" y2="127.6"/>
	<line class="st0" x1="103.4" y1="152.4" x2="86.6" y2="127.6"/>
	<line class="st0" x1="141.3" y1="152.5" x2="124.7" y2="127.5"/>
	<line class="st0" x1="179.1" y1="152.7" x2="162.9" y2="127.3"/>
	<line class="st0" x1="216.9" y1="152.7" x2="201.1" y2="127.3"/>
	<line class="st0" x1="254.7" y1="152.9" x2="239.3" y2="127.1"/>
	<line class="st0" x1="292.5" y1="153" x2="277.5" y2="127"/>
	<line class="st0" x1="330.3" y1="153.1" x2="315.7" y2="126.9"/>
	<line class="st0" x1="368" y1="153.2" x2="354" y2="126.8"/>
	<line class="st0" x1="405.8" y1="153.4" x2="392.2" y2="126.6"/>
	<line class="st0" x1="443.6" y1="153.5" x2="430.4" y2="126.5"/>
	<line class="st0" x1="481.3" y1="153.6" x2="468.7" y2="126.4"/>
	<line class="st0" x1="519.1" y1="153.7" x2="506.9" y2="126.3"/>
	<line class="st0" x1="556.9" y1="153.8" x2="545.1" y2="126.2"/>
	<line class="st0" x1="594.4" y1="154" x2="583.6" y2="126"/>
	<line class="st0" x1="632.1" y1="154.1" x2="621.9" y2="125.9"/>
	<line class="st0" x1="669.9" y1="154.2" x2="660.1" y2="125.8"/>
	<line class="st0" x1="707.6" y1="154.3" x2="698.4" y2="125.7"/>
	<line class="st0" x1="744.9" y1="154.5" x2="737.1" y2="125.5"/>
	<line class="st0" x1="782.1" y1="154.7" x2="775.9" y2="125.3"/>
	<line class="st0" x1="819.3" y1="154.8" x2="814.7" y2="125.2"/>
	<line class="st0" x1="856" y1="155" x2="854" y2="125"/>
	<line class="st0" x1="893" y1="155" x2="893" y2="125"/>
	<line class="st0" x1="931" y1="155" x2="931" y2="125"/>
	<line class="st0" x1="965.9" y1="154.7" x2="972.1" y2="125.3"/>
	<line class="st0" x1="1002.4" y1="154.3" x2="1011.6" y2="125.7"/>
	<line class="st0" x1="1038.2" y1="153.4" x2="1051.8" y2="126.6"/>
	<line class="st0" x1="1074.4" y1="152.3" x2="1091.6" y2="127.7"/>
	<line class="st0" x1="1110.6" y1="150.8" x2="1131.4" y2="129.2"/>
	<line class="st0" x1="1147.2" y1="149.2" x2="1170.8" y2="130.8"/>
	<line class="st0" x1="1183.6" y1="146.8" x2="1210.4" y2="133.2"/>
	<line class="st0" x1="1220.9" y1="145.1" x2="1249.1" y2="134.9"/>
	<line class="st0" x1="1258.4" y1="143.6" x2="1287.6" y2="136.4"/>
	<line class="st0" x1="1296.1" y1="141.6" x2="1325.9" y2="138.4"/>
	<line class="st0" x1="1334" y1="140" x2="1364" y2="140"/>
	<line class="st0" x1="1372.1" y1="138.4" x2="1401.9" y2="141.6"/>
	<line class="st0" x1="1410.4" y1="136.6" x2="1439.6" y2="143.4"/>
	<line class="st0" x1="1448.5" y1="136.1" x2="1477.5" y2="143.9"/>
	<line class="st0" x1="1487" y1="134.6" x2="1515" y2="145.4"/>
</g>
<g>
	<line class="st0" x1="28.1" y1="191.9" x2="9.9" y2="168.1"/>
	<line class="st0" x1="66" y1="192" x2="48" y2="168"/>
	<line class="st0" x1="103.8" y1="192.1" x2="86.2" y2="167.9"/>
	<line class="st0" x1="141.8" y1="192.1" x2="124.2" y2="167.9"/>
	<line class="st0" x1="179.7" y1="192.2" x2="162.3" y2="167.8"/>
	<line class="st0" x1="217.6" y1="192.3" x2="200.4" y2="167.7"/>
	<line class="st0" x1="255.5" y1="192.4" x2="238.5" y2="167.6"/>
	<line class="st0" x1="293.4" y1="192.4" x2="276.6" y2="167.6"/>
	<line class="st0" x1="331.2" y1="192.6" x2="314.8" y2="167.4"/>
	<line class="st0" x1="368.9" y1="192.7" x2="353.1" y2="167.3"/>
	<line class="st0" x1="406.7" y1="192.9" x2="391.3" y2="167.1"/>
	<line class="st0" x1="444.5" y1="193" x2="429.5" y2="167"/>
	<line class="st0" x1="482.3" y1="193.1" x2="467.7" y2="166.9"/>
	<line class="st0" x1="520" y1="193.2" x2="506" y2="166.8"/>
	<line class="st0" x1="557.8" y1="193.4" x2="544.2" y2="166.6"/>
	<line class="st0" x1="595.8" y1="193.4" x2="582.2" y2="166.6"/>
	<line class="st0" x1="633.6" y1="193.5" x2="620.4" y2="166.5"/>
	<line class="st0" x1="671.1" y1="193.7" x2="658.9" y2="166.3"/>
	<line class="st0" x1="708.6" y1="193.9" x2="697.4" y2="166.1"/>
	<line class="st0" x1="745.9" y1="194.2" x2="736.1" y2="165.8"/>
	<line class="st0" x1="783.1" y1="194.4" x2="774.9" y2="165.6"/>
	<line class="st0" x1="820.4" y1="194.6" x2="813.6" y2="165.4"/>
	<line class="st0" x1="857.6" y1="194.8" x2="852.4" y2="165.2"/>
	<line class="st0" x1="894.3" y1="194.9" x2="891.7" y2="165.1"/>
	<line class="st0" x1="931" y1="195" x2="931" y2="165"/>
	<line class="st0" x1="967.2" y1="194.9" x2="970.8" y2="165.1"/>
	<line class="st0" x1="1003.4" y1="194.6" x2="1010.6" y2="165.4"/>
	<line class="st0" x1="1038.9" y1="193.7" x2="1051.1" y2="166.3"/>
	<line class="st0" x1="1075.1" y1="192.7" x2="1090.9" y2="167.3"/>
	<line class="st0" x1="1110.4" y1="190.6" x2="1131.6" y2="169.4"/>
	<line class="st0" x1="1146.6" y1="188.4" x2="1171.4" y2="171.6"/>
	<line class="st0" x1="1183.4" y1="186.3" x2="1210.6" y2="173.7"/>
	<line class="st0" x1="1220.4" y1="183.6" x2="1249.6" y2="176.4"/>
	<line class="st0" x1="1258.1" y1="181.6" x2="1287.9" y2="178.4"/>
	<line class="st0" x1="1296" y1="180" x2="1326" y2="180"/>
	<line class="st0" x1="1334.1" y1="178.2" x2="1363.9" y2="181.8"/>
	<line class="st0" x1="1372.2" y1="177.4" x2="1401.8" y2="182.6"/>
	<line class="st0" x1="1410.6" y1="175.9" x2="1439.4" y2="184.1"/>
	<line class="st0" x1="1448.9" y1="174.9" x2="1477.1" y2="185.1"/>
	<line class="st0" x1="1487.3" y1="173.9" x2="1514.7" y2="186.1"/>
</g>
<g>
	<line class="st0" x1="28.7" y1="231.4" x2="9.3" y2="208.6"/>
	<line class="st0" x1="66.6" y1="231.5" x2="47.4" y2="208.5"/>
	<line class="st0" x1="104.5" y1="231.6" x2="85.5" y2="208.4"/>
	<line class="st0" x1="142.4" y1="231.7" x2="123.6" y2="208.3"/>
	<line class="st0" x1="180.3" y1="231.7" x2="161.7" y2="208.3"/>
	<line class="st0" x1="218.2" y1="231.8" x2="199.8" y2="208.2"/>
	<line class="st0" x1="256.1" y1="231.9" x2="237.9" y2="208.1"/>
	<line class="st0" x1="294.2" y1="231.8" x2="275.8" y2="208.2"/>
	<line class="st0" x1="332" y1="232" x2="314" y2="208"/>
	<line class="st0" x1="369.8" y1="232.1" x2="352.2" y2="207.9"/>
	<line class="st0" x1="407.6" y1="232.3" x2="390.4" y2="207.7"/>
	<line class="st0" x1="445.4" y1="232.4" x2="428.6" y2="207.6"/>
	<line class="st0" x1="483.2" y1="232.6" x2="466.8" y2="207.4"/>
	<line class="st0" x1="520.9" y1="232.7" x2="505.1" y2="207.3"/>
	<line class="st0" x1="558.7" y1="232.9" x2="543.3" y2="207.1"/>
	<line class="st0" x1="596.5" y1="233" x2="581.5" y2="207"/>
	<line class="st0" x1="634.3" y1="233.1" x2="619.7" y2="206.9"/>
	<line class="st0" x1="672" y1="233.2" x2="658" y2="206.8"/>
	<line class="st0" x1="709.8" y1="233.4" x2="696.2" y2="206.6"/>
	<line class="st0" x1="747.1" y1="233.7" x2="734.9" y2="206.3"/>
	<line class="st0" x1="784.9" y1="233.8" x2="773.1" y2="206.2"/>
	<line class="st0" x1="821.9" y1="234.2" x2="812.1" y2="205.8"/>
	<line class="st0" x1="859.1" y1="234.4" x2="850.9" y2="205.6"/>
	<line class="st0" x1="896.4" y1="234.6" x2="889.6" y2="205.4"/>
	<line class="st0" x1="932.8" y1="234.9" x2="929.2" y2="205.1"/>
	<line class="st0" x1="969.3" y1="235" x2="968.7" y2="205"/>
	<line class="st0" x1="1004.9" y1="234.9" x2="1009.1" y2="205.1"/>
	<line class="st0" x1="1040.6" y1="234.3" x2="1049.4" y2="205.7"/>
	<line class="st0" x1="1075.5" y1="233" x2="1090.5" y2="207"/>
	<line class="st0" x1="1110.2" y1="230.4" x2="1131.8" y2="209.6"/>
	<line class="st0" x1="1146.6" y1="228.4" x2="1171.4" y2="211.6"/>
	<line class="st0" x1="1183" y1="225.4" x2="1211" y2="214.6"/>
	<line class="st0" x1="1220.2" y1="222.6" x2="1249.8" y2="217.4"/>
	<line class="st0" x1="1258" y1="219.5" x2="1288" y2="220.5"/>
	<line class="st0" x1="1296.2" y1="217.7" x2="1325.8" y2="222.3"/>
	<line class="st0" x1="1334.4" y1="216.6" x2="1363.6" y2="223.4"/>
	<line class="st0" x1="1373" y1="214.6" x2="1401" y2="225.4"/>
	<line class="st0" x1="1411" y1="214.6" x2="1439" y2="225.4"/>
	<line class="st0" x1="1449.3" y1="213.9" x2="1476.7" y2="226.1"/>
	<line class="st0" x1="1487.9" y1="212.7" x2="1514.1" y2="227.3"/>
</g>
<g>
	<line class="st0" x1="28.7" y1="271.4" x2="9.3" y2="248.6"/>
	<line class="st0" x1="66.6" y1="271.5" x2="47.4" y2="248.5"/>
	<line class="st0" x1="104.5" y1="271.6" x2="85.5" y2="248.4"/>
	<line class="st0" x1="142.4" y1="271.7" x2="123.6" y2="248.3"/>
	<line class="st0" x1="180.3" y1="271.7" x2="161.7" y2="248.3"/>
	<line class="st0" x1="218.2" y1="271.8" x2="199.8" y2="248.2"/>
	<line class="st0" x1="256.1" y1="271.9" x2="237.9" y2="248.1"/>
	<line class="st0" x1="294" y1="272" x2="276" y2="248"/>
	<line class="st0" x1="331.9" y1="272.1" x2="314.1" y2="247.9"/>
	<line class="st0" x1="369.8" y1="272.1" x2="352.2" y2="247.9"/>
	<line class="st0" x1="407.7" y1="272.2" x2="390.3" y2="247.8"/>
	<line class="st0" x1="445.6" y1="272.3" x2="428.4" y2="247.7"/>
	<line class="st0" x1="483.4" y1="272.4" x2="466.6" y2="247.6"/>
	<line class="st0" x1="521.2" y1="272.6" x2="504.8" y2="247.4"/>
	<line class="st0" x1="558.9" y1="272.7" x2="543.1" y2="247.3"/>
	<line class="st0" x1="596.7" y1="272.9" x2="581.3" y2="247.1"/>
	<line class="st0" x1="634.5" y1="273" x2="619.5" y2="247"/>
	<line class="st0" x1="672.3" y1="273.1" x2="657.7" y2="246.9"/>
	<line class="st0" x1="710" y1="273.2" x2="696" y2="246.8"/>
	<line class="st0" x1="747.8" y1="273.4" x2="734.2" y2="246.6"/>
	<line class="st0" x1="785.6" y1="273.5" x2="772.4" y2="246.5"/>
	<line class="st0" x1="823.3" y1="273.6" x2="810.7" y2="246.4"/>
	<line class="st0" x1="861.1" y1="273.7" x2="848.9" y2="246.3"/>
	<line class="st0" x1="897.6" y1="274.3" x2="888.4" y2="245.7"/>
	<line class="st0" x1="935.1" y1="274.4" x2="926.9" y2="245.6"/>
	<line class="st0" x1="971.3" y1="274.8" x2="966.7" y2="245.2"/>
	<line class="st0" x1="1007" y1="275" x2="1007" y2="245"/>
	<line class="st0" x1="1042.4" y1="274.8" x2="1047.6" y2="245.2"/>
	<line class="st0" x1="1076.4" y1="273.5" x2="1089.6" y2="246.5"/>
	<line class="st0" x1="1110.6" y1="270.8" x2="1131.4" y2="249.2"/>
	<line class="st0" x1="1145.4" y1="266.3" x2="1172.6" y2="253.7"/>
	<line class="st0" x1="1182.3" y1="263.1" x2="1211.7" y2="256.9"/>
	<line class="st0" x1="1220" y1="260.3" x2="1250" y2="259.7"/>
	<line class="st0" x1="1258.2" y1="257.4" x2="1287.8" y2="262.6"/>
	<line class="st0" x1="1297" y1="254.6" x2="1325" y2="265.4"/>
	<line class="st0" x1="1362.2" y1="267" x2="1335.8" y2="253"/>
	<line class="st0" x1="1399.9" y1="267.7" x2="1374.1" y2="252.3"/>
	<line class="st0" x1="1437.6" y1="268.2" x2="1412.4" y2="251.8"/>
	<line class="st0" x1="1450.1" y1="252.3" x2="1475.9" y2="267.7"/>
	<line class="st0" x1="1488.9" y1="251.2" x2="1513.1" y2="268.8"/>
</g>
<g>
	<line class="st0" x1="29.2" y1="311" x2="8.8" y2="289"/>
	<line class="st0" x1="67.1" y1="311.1" x2="46.9" y2="288.9"/>
	<line class="st0" x1="105" y1="311.1" x2="85" y2="288.9"/>
	<line class="st0" x1="142.9" y1="311.2" x2="123.1" y2="288.8"/>
	<line class="st0" x1="180.6" y1="311.5" x2="161.4" y2="288.5"/>
	<line class="st0" x1="218.5" y1="311.6" x2="199.5" y2="288.4"/>
	<line class="st0" x1="256.4" y1="311.7" x2="237.6" y2="288.3"/>
	<line class="st0" x1="294.3" y1="311.7" x2="275.7" y2="288.3"/>
	<line class="st0" x1="332.2" y1="311.8" x2="313.8" y2="288.2"/>
	<line class="st0" x1="370.1" y1="311.9" x2="351.9" y2="288.1"/>
	<line class="st0" x1="408" y1="312" x2="390" y2="288"/>
	<line class="st0" x1="445.9" y1="312.1" x2="428.1" y2="287.9"/>
	<line class="st0" x1="483.8" y1="312.1" x2="466.2" y2="287.9"/>
	<line class="st0" x1="521.7" y1="312.2" x2="504.3" y2="287.8"/>
	<line class="st0" x1="559.6" y1="312.3" x2="542.4" y2="287.7"/>
	<line class="st0" x1="597.8" y1="312.1" x2="580.2" y2="287.9"/>
	<line class="st0" x1="636" y1="312" x2="618" y2="288"/>
	<line class="st0" x1="673.6" y1="312.3" x2="656.4" y2="287.7"/>
	<line class="st0" x1="711.2" y1="312.6" x2="694.8" y2="287.4"/>
	<line class="st0" x1="748.9" y1="312.7" x2="733.1" y2="287.3"/>
	<line class="st0" x1="786.7" y1="312.9" x2="771.3" y2="287.1"/>
	<line class="st0" x1="824.5" y1="313" x2="809.5" y2="287"/>
	<line class="st0" x1="862.3" y1="313.1" x2="847.7" y2="286.9"/>
	<line class="st0" x1="900" y1="313.2" x2="886" y2="286.8"/>
	<line class="st0" x1="937.3" y1="313.6" x2="924.7" y2="286.4"/>
	<line class="st0" x1="974.1" y1="314.1" x2="963.9" y2="285.9"/>
	<line class="st0" x1="1010.4" y1="314.6" x2="1003.6" y2="285.4"/>
	<line class="st0" x1="1045" y1="315" x2="1045" y2="285"/>
	<line class="st0" x1="1078.6" y1="314.3" x2="1087.4" y2="285.7"/>
	<line class="st0" x1="1110.8" y1="311" x2="1131.2" y2="289"/>
	<line class="st0" x1="1145" y1="305.4" x2="1173" y2="294.6"/>
	<line class="st0" x1="1182" y1="300.3" x2="1212" y2="299.7"/>
	<line class="st0" x1="1220.4" y1="296.4" x2="1249.6" y2="303.6"/>
	<line class="st0" x1="1285.9" y1="307.7" x2="1260.1" y2="292.3"/>
	<line class="st0" x1="1323.3" y1="308.6" x2="1298.7" y2="291.4"/>
	<line class="st0" x1="1360.7" y1="309.4" x2="1337.3" y2="290.6"/>
	<line class="st0" x1="1399" y1="309" x2="1375" y2="291"/>
	<line class="st0" x1="1437" y1="309" x2="1413" y2="291"/>
	<line class="st0" x1="1474.3" y1="309.8" x2="1451.7" y2="290.2"/>
	<line class="st0" x1="1512.3" y1="309.8" x2="1489.7" y2="290.2"/>
</g>
<g>
	<line class="st0" x1="28.8" y1="351.3" x2="9.2" y2="328.7"/>
	<line class="st0" x1="66.6" y1="351.5" x2="47.4" y2="328.5"/>
	<line class="st0" x1="104.6" y1="351.5" x2="85.4" y2="328.5"/>
	<line class="st0" x1="142.7" y1="351.4" x2="123.3" y2="328.6"/>
	<line class="st0" x1="180.8" y1="351.3" x2="161.2" y2="328.7"/>
	<line class="st0" x1="219" y1="351.1" x2="199" y2="328.9"/>
	<line class="st0" x1="257.2" y1="351" x2="236.8" y2="329"/>
	<line class="st0" x1="296" y1="350.2" x2="274" y2="329.8"/>
	<line class="st0" x1="333.6" y1="350.6" x2="312.4" y2="329.4"/>
	<line class="st0" x1="371" y1="351.1" x2="351" y2="328.9"/>
	<line class="st0" x1="408.8" y1="351.3" x2="389.2" y2="328.7"/>
	<line class="st0" x1="446.2" y1="351.8" x2="427.8" y2="328.2"/>
	<line class="st0" x1="484.3" y1="351.7" x2="465.7" y2="328.3"/>
	<line class="st0" x1="522.4" y1="351.7" x2="503.6" y2="328.3"/>
	<line class="st0" x1="560.6" y1="351.5" x2="541.4" y2="328.5"/>
	<line class="st0" x1="598.8" y1="351.3" x2="579.2" y2="328.7"/>
	<line class="st0" x1="637" y1="351.1" x2="617" y2="328.9"/>
	<line class="st0" x1="675.2" y1="351" x2="654.8" y2="329"/>
	<line class="st0" x1="713.4" y1="350.8" x2="692.6" y2="329.2"/>
	<line class="st0" x1="751.6" y1="350.6" x2="730.4" y2="329.4"/>
	<line class="st0" x1="768.6" y1="329.2" x2="789.4" y2="350.8"/>
	<line class="st0" x1="826.4" y1="351.7" x2="807.6" y2="328.3"/>
	<line class="st0" x1="864.2" y1="351.8" x2="845.8" y2="328.2"/>
	<line class="st0" x1="902" y1="352" x2="884" y2="328"/>
	<line class="st0" x1="939.8" y1="352.1" x2="922.2" y2="327.9"/>
	<line class="st0" x1="977.2" y1="352.6" x2="960.8" y2="327.4"/>
	<line class="st0" x1="1013.8" y1="353.4" x2="1000.2" y2="326.6"/>
	<line class="st0" x1="1049.9" y1="354.2" x2="1040.1" y2="325.8"/>
	<line class="st0" x1="1083" y1="355" x2="1083" y2="325"/>
	<line class="st0" x1="1111.2" y1="351.3" x2="1130.8" y2="328.7"/>
	<line class="st0" x1="1172" y1="347.5" x2="1146" y2="332.5"/>
	<line class="st0" x1="1207.4" y1="350.8" x2="1186.6" y2="329.2"/>
	<line class="st0" x1="1245.4" y1="350.8" x2="1224.6" y2="329.2"/>
	<line class="st0" x1="1283.6" y1="350.6" x2="1262.4" y2="329.4"/>
	<line class="st0" x1="1321.4" y1="350.8" x2="1300.6" y2="329.2"/>
	<line class="st0" x1="1359.6" y1="350.6" x2="1338.4" y2="329.4"/>
	<line class="st0" x1="1397.6" y1="350.6" x2="1376.4" y2="329.4"/>
	<line class="st0" x1="1435.4" y1="350.8" x2="1414.6" y2="329.2"/>
	<line class="st0" x1="1473.2" y1="351" x2="1452.8" y2="329"/>
	<line class="st0" x1="1511.6" y1="350.6" x2="1490.4" y2="329.4"/>
</g>
<g>
	<line class="st0" x1="29.8" y1="390.4" x2="8.2" y2="369.6"/>
	<line class="st0" x1="67.7" y1="390.5" x2="46.3" y2="369.5"/>
	<line class="st0" x1="105.6" y1="390.6" x2="84.4" y2="369.4"/>
	<line class="st0" x1="143.5" y1="390.7" x2="122.5" y2="369.3"/>
	<line class="st0" x1="181.4" y1="390.8" x2="160.6" y2="369.2"/>
	<line class="st0" x1="219.3" y1="390.9" x2="198.7" y2="369.1"/>
	<line class="st0" x1="257.2" y1="391" x2="236.8" y2="369"/>
	<line class="st0" x1="295.1" y1="391.1" x2="274.9" y2="368.9"/>
	<line class="st0" x1="333" y1="391.1" x2="313" y2="368.9"/>
	<line class="st0" x1="370.9" y1="391.2" x2="351.1" y2="368.8"/>
	<line class="st0" x1="408.8" y1="391.3" x2="389.2" y2="368.7"/>
	<line class="st0" x1="446.7" y1="391.4" x2="427.3" y2="368.6"/>
	<line class="st0" x1="484.6" y1="391.5" x2="465.4" y2="368.5"/>
	<line class="st0" x1="522.5" y1="391.6" x2="503.5" y2="368.4"/>
	<line class="st0" x1="561.4" y1="390.8" x2="540.6" y2="369.2"/>
	<line class="st0" x1="599.6" y1="390.6" x2="578.4" y2="369.4"/>
	<line class="st0" x1="637.8" y1="390.4" x2="616.2" y2="369.6"/>
	<line class="st0" x1="676" y1="390.2" x2="654" y2="369.8"/>
	<line class="st0" x1="714.1" y1="390" x2="691.9" y2="370"/>
	<line class="st0" x1="752.3" y1="389.8" x2="729.7" y2="370.2"/>
	<line class="st0" x1="790.5" y1="389.6" x2="767.5" y2="370.4"/>
	<line class="st0" x1="828.3" y1="389.8" x2="805.7" y2="370.2"/>
	<line class="st0" x1="866.1" y1="390" x2="843.9" y2="370"/>
	<line class="st0" x1="904" y1="390.2" x2="882" y2="369.8"/>
	<line class="st0" x1="941.8" y1="390.4" x2="920.2" y2="369.6"/>
	<line class="st0" x1="981.3" y1="388.6" x2="956.7" y2="371.4"/>
	<line class="st0" x1="1019.6" y1="388.2" x2="994.4" y2="371.8"/>
	<line class="st0" x1="1059.1" y1="385.1" x2="1030.9" y2="374.9"/>
	<line class="st0" x1="1068" y1="379.5" x2="1098" y2="380.5"/>
	<line class="st0" x1="1108.1" y1="387.7" x2="1133.9" y2="372.3"/>
	<line class="st0" x1="1157.4" y1="394.9" x2="1160.6" y2="365.1"/>
	<line class="st0" x1="1201.4" y1="394.3" x2="1192.6" y2="365.7"/>
	<line class="st0" x1="1241.6" y1="393.5" x2="1228.4" y2="366.5"/>
	<line class="st0" x1="1280.9" y1="392.7" x2="1265.1" y2="367.3"/>
	<line class="st0" x1="1319.2" y1="392.6" x2="1302.8" y2="367.4"/>
	<line class="st0" x1="1357.8" y1="392.1" x2="1340.2" y2="367.9"/>
	<line class="st0" x1="1396.4" y1="391.7" x2="1377.6" y2="368.3"/>
	<line class="st0" x1="1434.4" y1="391.7" x2="1415.6" y2="368.3"/>
	<line class="st0" x1="1472.4" y1="391.7" x2="1453.6" y2="368.3"/>
	<line class="st0" x1="1510.4" y1="391.7" x2="1491.6" y2="368.3"/>
</g>
<g>
	<line class="st0" x1="7" y1="411" x2="31" y2="429"/>
	<line class="st0" x1="44.9" y1="411.1" x2="69.1" y2="428.9"/>
	<line class="st0" x1="82.9" y1="411.2" x2="107.1" y2="428.8"/>
	<line class="st0" x1="120.8" y1="411.3" x2="145.2" y2="428.7"/>
	<line class="st0" x1="158.7" y1="411.4" x2="183.3" y2="428.6"/>
	<line class="st0" x1="196.7" y1="411.4" x2="221.3" y2="428.6"/>
	<line class="st0" x1="234.6" y1="411.5" x2="259.4" y2="428.5"/>
	<line class="st0" x1="272.6" y1="411.6" x2="297.4" y2="428.4"/>
	<line class="st0" x1="310.5" y1="411.7" x2="335.5" y2="428.3"/>
	<line class="st0" x1="348.6" y1="411.6" x2="373.4" y2="428.4"/>
	<line class="st0" x1="386.4" y1="411.8" x2="411.6" y2="428.2"/>
	<line class="st0" x1="424.3" y1="412.1" x2="449.7" y2="427.9"/>
	<line class="st0" x1="462.1" y1="412.3" x2="487.9" y2="427.7"/>
	<line class="st0" x1="499.9" y1="412.7" x2="526.1" y2="427.3"/>
	<line class="st0" x1="537.6" y1="413.2" x2="564.4" y2="426.8"/>
	<line class="st0" x1="575.4" y1="413.7" x2="602.6" y2="426.3"/>
	<line class="st0" x1="613.3" y1="413.9" x2="640.7" y2="426.1"/>
	<line class="st0" x1="651.4" y1="413.7" x2="678.6" y2="426.3"/>
	<line class="st0" x1="689.5" y1="413.4" x2="716.5" y2="426.6"/>
	<line class="st0" x1="727.6" y1="413.2" x2="754.4" y2="426.8"/>
	<line class="st0" x1="765.8" y1="413" x2="792.2" y2="427"/>
	<line class="st0" x1="803.9" y1="412.7" x2="830.1" y2="427.3"/>
	<line class="st0" x1="842" y1="412.5" x2="868" y2="427.5"/>
	<line class="st0" x1="880.1" y1="412.3" x2="905.9" y2="427.7"/>
	<line class="st0" x1="917.6" y1="413.2" x2="944.4" y2="426.8"/>
	<line class="st0" x1="954.8" y1="415.1" x2="983.2" y2="424.9"/>
	<line class="st0" x1="992.4" y1="416.6" x2="1021.6" y2="423.4"/>
	<line class="st0" x1="1030.1" y1="418.7" x2="1059.9" y2="421.3"/>
	<line class="st0" x1="1068.7" y1="424.6" x2="1097.3" y2="415.4"/>
	<line class="st0" x1="1110.2" y1="430.4" x2="1131.8" y2="409.6"/>
	<line class="st0" x1="1153.9" y1="434.1" x2="1164.1" y2="405.9"/>
	<line class="st0" x1="1197" y1="435" x2="1197" y2="405"/>
	<line class="st0" x1="1237.6" y1="434.8" x2="1232.4" y2="405.2"/>
	<line class="st0" x1="1277.6" y1="434.3" x2="1268.4" y2="405.7"/>
	<line class="st0" x1="1316.6" y1="433.9" x2="1305.4" y2="406.1"/>
	<line class="st0" x1="1356" y1="433.2" x2="1342" y2="406.8"/>
	<line class="st0" x1="1394.3" y1="433.1" x2="1379.7" y2="406.9"/>
	<line class="st0" x1="1432.9" y1="432.7" x2="1417.1" y2="407.3"/>
	<line class="st0" x1="1471.2" y1="432.6" x2="1454.8" y2="407.4"/>
	<line class="st0" x1="1509.2" y1="432.6" x2="1492.8" y2="407.4"/>
</g>
<g>
	<line class="st0" x1="7.7" y1="450.2" x2="30.3" y2="469.8"/>
	<line class="st0" x1="45.5" y1="450.4" x2="68.5" y2="469.6"/>
	<line class="st0" x1="83.4" y1="450.5" x2="106.6" y2="469.5"/>
	<line class="st0" x1="121.3" y1="450.6" x2="144.7" y2="469.4"/>
	<line class="st0" x1="159.3" y1="450.7" x2="182.7" y2="469.3"/>
	<line class="st0" x1="197.2" y1="450.8" x2="220.8" y2="469.2"/>
	<line class="st0" x1="235.1" y1="450.9" x2="258.9" y2="469.1"/>
	<line class="st0" x1="273" y1="451" x2="297" y2="469"/>
	<line class="st0" x1="310.9" y1="451.1" x2="335.1" y2="468.9"/>
	<line class="st0" x1="348.9" y1="451.2" x2="373.1" y2="468.8"/>
	<line class="st0" x1="386.8" y1="451.3" x2="411.2" y2="468.7"/>
	<line class="st0" x1="424.9" y1="451.2" x2="449.1" y2="468.8"/>
	<line class="st0" x1="462.8" y1="451.3" x2="487.2" y2="468.7"/>
	<line class="st0" x1="500.7" y1="451.4" x2="525.3" y2="468.6"/>
	<line class="st0" x1="538.6" y1="451.5" x2="563.4" y2="468.5"/>
	<line class="st0" x1="576.6" y1="451.6" x2="601.4" y2="468.4"/>
	<line class="st0" x1="614.4" y1="451.8" x2="639.6" y2="468.2"/>
	<line class="st0" x1="652.3" y1="452.1" x2="677.7" y2="467.9"/>
	<line class="st0" x1="690.1" y1="452.3" x2="715.9" y2="467.7"/>
	<line class="st0" x1="727.9" y1="452.7" x2="754.1" y2="467.3"/>
	<line class="st0" x1="765.6" y1="453.2" x2="792.4" y2="466.8"/>
	<line class="st0" x1="803.4" y1="453.7" x2="830.6" y2="466.3"/>
	<line class="st0" x1="841.1" y1="454.4" x2="868.9" y2="465.6"/>
	<line class="st0" x1="879" y1="454.6" x2="907" y2="465.4"/>
	<line class="st0" x1="916.6" y1="455.9" x2="945.4" y2="464.1"/>
	<line class="st0" x1="954.4" y1="456.6" x2="983.6" y2="463.4"/>
	<line class="st0" x1="992" y1="459" x2="1022" y2="461"/>
	<line class="st0" x1="1030.3" y1="463.1" x2="1059.7" y2="456.9"/>
	<line class="st0" x1="1069.8" y1="467" x2="1096.2" y2="453"/>
	<line class="st0" x1="1110.2" y1="470.4" x2="1131.8" y2="449.6"/>
	<line class="st0" x1="1152" y1="473.2" x2="1166" y2="446.8"/>
	<line class="st0" x1="1193.4" y1="474.6" x2="1200.6" y2="445.4"/>
	<line class="st0" x1="1235" y1="475" x2="1235" y2="445"/>
	<line class="st0" x1="1274.8" y1="474.9" x2="1271.2" y2="445.1"/>
	<line class="st0" x1="1314.9" y1="474.5" x2="1307.1" y2="445.5"/>
	<line class="st0" x1="1353.6" y1="474.3" x2="1344.4" y2="445.7"/>
	<line class="st0" x1="1392.1" y1="474.1" x2="1381.9" y2="445.9"/>
	<line class="st0" x1="1431.3" y1="473.6" x2="1418.7" y2="446.4"/>
	<line class="st0" x1="1469.8" y1="473.4" x2="1456.2" y2="446.6"/>
	<line class="st0" x1="1508.3" y1="473.1" x2="1493.7" y2="446.9"/>
</g>
<g>
	<line class="st0" x1="7.7" y1="490.2" x2="30.3" y2="509.8"/>
	<line class="st0" x1="45.6" y1="490.3" x2="68.4" y2="509.7"/>
	<line class="st0" x1="83.5" y1="490.4" x2="106.5" y2="509.6"/>
	<line class="st0" x1="121.4" y1="490.5" x2="144.6" y2="509.5"/>
	<line class="st0" x1="159.3" y1="490.6" x2="182.7" y2="509.4"/>
	<line class="st0" x1="197.3" y1="490.7" x2="220.7" y2="509.3"/>
	<line class="st0" x1="235.2" y1="490.8" x2="258.8" y2="509.2"/>
	<line class="st0" x1="273.1" y1="490.9" x2="296.9" y2="509.1"/>
	<line class="st0" x1="311" y1="491" x2="335" y2="509"/>
	<line class="st0" x1="348.9" y1="491.2" x2="373.1" y2="508.8"/>
	<line class="st0" x1="386.7" y1="491.4" x2="411.3" y2="508.6"/>
	<line class="st0" x1="424.6" y1="491.6" x2="449.4" y2="508.4"/>
	<line class="st0" x1="462.4" y1="491.8" x2="487.6" y2="508.2"/>
	<line class="st0" x1="500.3" y1="492.1" x2="525.7" y2="507.9"/>
	<line class="st0" x1="538.1" y1="492.3" x2="563.9" y2="507.7"/>
	<line class="st0" x1="576" y1="492.5" x2="602" y2="507.5"/>
	<line class="st0" x1="613.9" y1="492.7" x2="640.1" y2="507.3"/>
	<line class="st0" x1="651.8" y1="493" x2="678.2" y2="507"/>
	<line class="st0" x1="689.6" y1="493.2" x2="716.4" y2="506.8"/>
	<line class="st0" x1="727.5" y1="493.4" x2="754.5" y2="506.6"/>
	<line class="st0" x1="765.2" y1="494.1" x2="792.8" y2="505.9"/>
	<line class="st0" x1="803" y1="494.6" x2="831" y2="505.4"/>
	<line class="st0" x1="840.7" y1="495.4" x2="869.3" y2="504.6"/>
	<line class="st0" x1="878.4" y1="496.4" x2="907.6" y2="503.6"/>
	<line class="st0" x1="916.1" y1="498.4" x2="945.9" y2="501.6"/>
	<line class="st0" x1="954" y1="500" x2="984" y2="500"/>
	<line class="st0" x1="992.2" y1="502.6" x2="1021.8" y2="497.4"/>
	<line class="st0" x1="1030.7" y1="504.6" x2="1059.3" y2="495.4"/>
	<line class="st0" x1="1070.3" y1="507.9" x2="1095.7" y2="492.1"/>
	<line class="st0" x1="1110.2" y1="510.4" x2="1131.8" y2="489.6"/>
	<line class="st0" x1="1151.3" y1="512.9" x2="1166.7" y2="487.1"/>
	<line class="st0" x1="1191.9" y1="514.1" x2="1202.1" y2="485.9"/>
	<line class="st0" x1="1232.9" y1="514.9" x2="1237.1" y2="485.1"/>
	<line class="st0" x1="1273" y1="515" x2="1273" y2="485"/>
	<line class="st0" x1="1312.6" y1="514.9" x2="1309.4" y2="485.1"/>
	<line class="st0" x1="1352.1" y1="514.7" x2="1345.9" y2="485.3"/>
	<line class="st0" x1="1391.1" y1="514.4" x2="1382.9" y2="485.6"/>
	<line class="st0" x1="1429.9" y1="514.2" x2="1420.1" y2="485.8"/>
	<line class="st0" x1="1468.4" y1="514" x2="1457.6" y2="486"/>
	<line class="st0" x1="1506.9" y1="513.8" x2="1495.1" y2="486.2"/>
</g>
<g>
	<line class="st0" x1="6.7" y1="531.4" x2="31.3" y2="548.6"/>
	<line class="st0" x1="44.6" y1="531.5" x2="69.4" y2="548.5"/>
	<line class="st0" x1="82.6" y1="531.6" x2="107.4" y2="548.4"/>
	<line class="st0" x1="120.5" y1="531.7" x2="145.5" y2="548.3"/>
	<line class="st0" x1="158.4" y1="531.8" x2="183.6" y2="548.2"/>
	<line class="st0" x1="196.3" y1="531.9" x2="221.7" y2="548.1"/>
	<line class="st0" x1="234.3" y1="532.1" x2="259.7" y2="547.9"/>
	<line class="st0" x1="272.2" y1="532.2" x2="297.8" y2="547.8"/>
	<line class="st0" x1="310.1" y1="532.3" x2="335.9" y2="547.7"/>
	<line class="st0" x1="348" y1="532.5" x2="374" y2="547.5"/>
	<line class="st0" x1="385.9" y1="532.7" x2="412.1" y2="547.3"/>
	<line class="st0" x1="423.8" y1="533" x2="450.2" y2="547"/>
	<line class="st0" x1="461.6" y1="533.2" x2="488.4" y2="546.8"/>
	<line class="st0" x1="499.5" y1="533.4" x2="526.5" y2="546.6"/>
	<line class="st0" x1="537.4" y1="533.7" x2="564.6" y2="546.3"/>
	<line class="st0" x1="575.3" y1="533.9" x2="602.7" y2="546.1"/>
	<line class="st0" x1="613.2" y1="534.1" x2="640.8" y2="545.9"/>
	<line class="st0" x1="651.1" y1="534.4" x2="678.9" y2="545.6"/>
	<line class="st0" x1="688.9" y1="534.9" x2="717.1" y2="545.1"/>
	<line class="st0" x1="726.7" y1="535.4" x2="755.3" y2="544.6"/>
	<line class="st0" x1="764.6" y1="535.9" x2="793.4" y2="544.1"/>
	<line class="st0" x1="802.4" y1="536.4" x2="831.6" y2="543.6"/>
	<line class="st0" x1="840.2" y1="537.4" x2="869.8" y2="542.6"/>
	<line class="st0" x1="878.1" y1="538.4" x2="907.9" y2="541.6"/>
	<line class="st0" x1="916" y1="540" x2="946" y2="540"/>
	<line class="st0" x1="954.1" y1="541.6" x2="983.9" y2="538.4"/>
	<line class="st0" x1="992.6" y1="544.1" x2="1021.4" y2="535.9"/>
	<line class="st0" x1="1031.2" y1="545.9" x2="1058.8" y2="534.1"/>
	<line class="st0" x1="1070.4" y1="548.2" x2="1095.6" y2="531.8"/>
	<line class="st0" x1="1110.4" y1="550.6" x2="1131.6" y2="529.4"/>
	<line class="st0" x1="1150.8" y1="552.6" x2="1167.2" y2="527.4"/>
	<line class="st0" x1="1190.9" y1="553.7" x2="1203.1" y2="526.3"/>
	<line class="st0" x1="1230.9" y1="554.4" x2="1239.1" y2="525.6"/>
	<line class="st0" x1="1271.4" y1="554.9" x2="1274.6" y2="525.1"/>
	<line class="st0" x1="1311" y1="555" x2="1311" y2="525"/>
	<line class="st0" x1="1350" y1="555" x2="1348" y2="525"/>
	<line class="st0" x1="1389.3" y1="554.8" x2="1384.7" y2="525.2"/>
	<line class="st0" x1="1428.9" y1="554.5" x2="1421.1" y2="525.5"/>
	<line class="st0" x1="1466.9" y1="554.5" x2="1459.1" y2="525.5"/>
	<line class="st0" x1="1505.4" y1="554.3" x2="1496.6" y2="525.7"/>
</g>
<g>
	<line class="st0" x1="6.9" y1="571.2" x2="31.1" y2="588.8"/>
	<line class="st0" x1="44.8" y1="571.3" x2="69.2" y2="588.7"/>
	<line class="st0" x1="82.7" y1="571.4" x2="107.3" y2="588.6"/>
	<line class="st0" x1="120.6" y1="571.5" x2="145.4" y2="588.5"/>
	<line class="st0" x1="158.6" y1="571.6" x2="183.4" y2="588.4"/>
	<line class="st0" x1="196.5" y1="571.7" x2="221.5" y2="588.3"/>
	<line class="st0" x1="234.4" y1="571.8" x2="259.6" y2="588.2"/>
	<line class="st0" x1="272.3" y1="571.9" x2="297.7" y2="588.1"/>
	<line class="st0" x1="310.3" y1="572.1" x2="335.7" y2="587.9"/>
	<line class="st0" x1="348.1" y1="572.3" x2="373.9" y2="587.7"/>
	<line class="st0" x1="386" y1="572.5" x2="412" y2="587.5"/>
	<line class="st0" x1="423.9" y1="572.7" x2="450.1" y2="587.3"/>
	<line class="st0" x1="461.8" y1="573" x2="488.2" y2="587"/>
	<line class="st0" x1="499.5" y1="573.4" x2="526.5" y2="586.6"/>
	<line class="st0" x1="537.3" y1="573.9" x2="564.7" y2="586.1"/>
	<line class="st0" x1="575.1" y1="574.4" x2="602.9" y2="585.6"/>
	<line class="st0" x1="612.9" y1="574.9" x2="641.1" y2="585.1"/>
	<line class="st0" x1="650.7" y1="575.4" x2="679.3" y2="584.6"/>
	<line class="st0" x1="688.6" y1="575.9" x2="717.4" y2="584.1"/>
	<line class="st0" x1="726.4" y1="576.4" x2="755.6" y2="583.6"/>
	<line class="st0" x1="764.3" y1="576.9" x2="793.7" y2="583.1"/>
	<line class="st0" x1="802.1" y1="578.2" x2="831.9" y2="581.8"/>
	<line class="st0" x1="840" y1="579" x2="870" y2="581"/>
	<line class="st0" x1="878" y1="580" x2="908" y2="580"/>
	<line class="st0" x1="916.1" y1="581.3" x2="945.9" y2="578.7"/>
	<line class="st0" x1="954.2" y1="582.6" x2="983.8" y2="577.4"/>
	<line class="st0" x1="992.9" y1="585.1" x2="1021.1" y2="574.9"/>
	<line class="st0" x1="1031.6" y1="586.8" x2="1058.4" y2="573.2"/>
	<line class="st0" x1="1070.9" y1="588.9" x2="1095.1" y2="571.1"/>
	<line class="st0" x1="1110.2" y1="590.4" x2="1131.8" y2="569.6"/>
	<line class="st0" x1="1150" y1="592" x2="1168" y2="568"/>
	<line class="st0" x1="1190" y1="593.2" x2="1204" y2="566.8"/>
	<line class="st0" x1="1229.9" y1="594.1" x2="1240.1" y2="565.9"/>
	<line class="st0" x1="1269.6" y1="594.6" x2="1276.4" y2="565.4"/>
	<line class="st0" x1="1310" y1="595" x2="1312" y2="565"/>
	<line class="st0" x1="1349" y1="595" x2="1349" y2="565"/>
	<line class="st0" x1="1388" y1="595" x2="1386" y2="565"/>
	<line class="st0" x1="1427.3" y1="594.8" x2="1422.7" y2="565.2"/>
	<line class="st0" x1="1466.1" y1="594.7" x2="1459.9" y2="565.3"/>
	<line class="st0" x1="1504.9" y1="594.5" x2="1497.1" y2="565.5"/>
</g>
<g>
	<line class="st0" x1="6.6" y1="611.6" x2="31.4" y2="628.4"/>
	<line class="st0" x1="44.5" y1="611.7" x2="69.5" y2="628.3"/>
	<line class="st0" x1="82.4" y1="611.8" x2="107.6" y2="628.2"/>
	<line class="st0" x1="120.3" y1="611.9" x2="145.7" y2="628.1"/>
	<line class="st0" x1="158.3" y1="612.1" x2="183.7" y2="627.9"/>
	<line class="st0" x1="196.2" y1="612.2" x2="221.8" y2="627.8"/>
	<line class="st0" x1="234.1" y1="612.3" x2="259.9" y2="627.7"/>
	<line class="st0" x1="272" y1="612.5" x2="298" y2="627.5"/>
	<line class="st0" x1="309.9" y1="612.7" x2="336.1" y2="627.3"/>
	<line class="st0" x1="347.8" y1="613" x2="374.2" y2="627"/>
	<line class="st0" x1="385.6" y1="613.2" x2="412.4" y2="626.8"/>
	<line class="st0" x1="423.5" y1="613.4" x2="450.5" y2="626.6"/>
	<line class="st0" x1="461.4" y1="613.7" x2="488.6" y2="626.3"/>
	<line class="st0" x1="499.3" y1="613.9" x2="526.7" y2="626.1"/>
	<line class="st0" x1="536.9" y1="614.9" x2="565.1" y2="625.1"/>
	<line class="st0" x1="574.7" y1="615.6" x2="603.3" y2="624.4"/>
	<line class="st0" x1="612.7" y1="615.4" x2="641.3" y2="624.6"/>
	<line class="st0" x1="650.4" y1="616.4" x2="679.6" y2="623.6"/>
	<line class="st0" x1="688.4" y1="616.6" x2="717.6" y2="623.4"/>
	<line class="st0" x1="726.1" y1="617.9" x2="755.9" y2="622.1"/>
	<line class="st0" x1="764.1" y1="618.4" x2="793.9" y2="621.6"/>
	<line class="st0" x1="802" y1="619" x2="832" y2="621"/>
	<line class="st0" x1="840" y1="620" x2="870" y2="620"/>
	<line class="st0" x1="878" y1="620.8" x2="908" y2="619.2"/>
	<line class="st0" x1="916.3" y1="622.9" x2="945.7" y2="617.1"/>
	<line class="st0" x1="954.6" y1="624.1" x2="983.4" y2="615.9"/>
	<line class="st0" x1="993.3" y1="626.1" x2="1020.7" y2="613.9"/>
	<line class="st0" x1="1032.3" y1="627.9" x2="1057.7" y2="612.1"/>
	<line class="st0" x1="1071.1" y1="629.1" x2="1094.9" y2="610.9"/>
	<line class="st0" x1="1111" y1="631.1" x2="1131" y2="608.9"/>
	<line class="st0" x1="1149.8" y1="631.8" x2="1168.2" y2="608.2"/>
	<line class="st0" x1="1189.5" y1="633" x2="1204.5" y2="607"/>
	<line class="st0" x1="1229.1" y1="633.8" x2="1240.9" y2="606.2"/>
	<line class="st0" x1="1268.9" y1="634.4" x2="1277.1" y2="605.6"/>
	<line class="st0" x1="1308.1" y1="634.7" x2="1313.9" y2="605.3"/>
	<line class="st0" x1="1348" y1="635" x2="1350" y2="605"/>
	<line class="st0" x1="1387" y1="635" x2="1387" y2="605"/>
	<line class="st0" x1="1426.3" y1="634.9" x2="1423.7" y2="605.1"/>
	<line class="st0" x1="1465.1" y1="634.9" x2="1460.9" y2="605.1"/>
	<line class="st0" x1="1503.9" y1="634.7" x2="1498.1" y2="605.3"/>
</g>
<g>
	<line class="st0" x1="31.7" y1="667.9" x2="6.3" y2="652.1"/>
	<line class="st0" x1="44.4" y1="651.8" x2="69.6" y2="668.2"/>
	<line class="st0" x1="82.3" y1="652.1" x2="107.7" y2="667.9"/>
	<line class="st0" x1="120.1" y1="652.3" x2="145.9" y2="667.7"/>
	<line class="st0" x1="158" y1="652.5" x2="184" y2="667.5"/>
	<line class="st0" x1="195.9" y1="652.7" x2="222.1" y2="667.3"/>
	<line class="st0" x1="233.8" y1="653" x2="260.2" y2="667"/>
	<line class="st0" x1="271.6" y1="653.2" x2="298.4" y2="666.8"/>
	<line class="st0" x1="309.5" y1="653.4" x2="336.5" y2="666.6"/>
	<line class="st0" x1="347.4" y1="653.7" x2="374.6" y2="666.3"/>
	<line class="st0" x1="385.2" y1="654.1" x2="412.8" y2="665.9"/>
	<line class="st0" x1="422.9" y1="654.9" x2="451.1" y2="665.1"/>
	<line class="st0" x1="460.7" y1="655.4" x2="489.3" y2="664.6"/>
	<line class="st0" x1="498.6" y1="655.9" x2="527.4" y2="664.1"/>
	<line class="st0" x1="536.5" y1="656.1" x2="565.5" y2="663.9"/>
	<line class="st0" x1="574.4" y1="656.4" x2="603.6" y2="663.6"/>
	<line class="st0" x1="612.4" y1="656.6" x2="641.6" y2="663.4"/>
	<line class="st0" x1="650.3" y1="656.9" x2="679.7" y2="663.1"/>
	<line class="st0" x1="688.2" y1="657.7" x2="717.8" y2="662.3"/>
	<line class="st0" x1="726.1" y1="658.4" x2="755.9" y2="661.6"/>
	<line class="st0" x1="764" y1="659.2" x2="794" y2="660.8"/>
	<line class="st0" x1="802" y1="660" x2="832" y2="660"/>
	<line class="st0" x1="840" y1="661" x2="870" y2="659"/>
	<line class="st0" x1="878.2" y1="662.6" x2="907.8" y2="657.4"/>
	<line class="st0" x1="916.4" y1="663.6" x2="945.6" y2="656.4"/>
	<line class="st0" x1="954.9" y1="665.1" x2="983.1" y2="654.9"/>
	<line class="st0" x1="993.5" y1="666.6" x2="1020.5" y2="653.4"/>
	<line class="st0" x1="1032.1" y1="667.7" x2="1057.9" y2="652.3"/>
	<line class="st0" x1="1071.2" y1="669.2" x2="1094.8" y2="650.8"/>
	<line class="st0" x1="1110.6" y1="670.8" x2="1131.4" y2="649.2"/>
	<line class="st0" x1="1150.4" y1="672.3" x2="1167.6" y2="647.7"/>
	<line class="st0" x1="1189.3" y1="672.9" x2="1204.7" y2="647.1"/>
	<line class="st0" x1="1228.4" y1="673.5" x2="1241.6" y2="646.5"/>
	<line class="st0" x1="1267.1" y1="673.8" x2="1278.9" y2="646.2"/>
	<line class="st0" x1="1307.4" y1="674.6" x2="1314.6" y2="645.4"/>
	<line class="st0" x1="1346.7" y1="674.8" x2="1351.3" y2="645.2"/>
	<line class="st0" x1="1385.4" y1="674.9" x2="1388.6" y2="645.1"/>
	<line class="st0" x1="1425" y1="675" x2="1425" y2="645"/>
	<line class="st0" x1="1464" y1="675" x2="1462" y2="645"/>
	<line class="st0" x1="1502.3" y1="674.9" x2="1499.7" y2="645.1"/>
</g>
<g>
	<line class="st0" x1="5.8" y1="692.8" x2="32.2" y2="707.2"/>
	<line class="st0" x1="43.8" y1="693" x2="70.2" y2="707"/>
	<line class="st0" x1="81.7" y1="693.1" x2="108.3" y2="706.9"/>
	<line class="st0" x1="119.6" y1="693.2" x2="146.4" y2="706.8"/>
	<line class="st0" x1="157.6" y1="693.3" x2="184.4" y2="706.7"/>
	<line class="st0" x1="195.5" y1="693.4" x2="222.5" y2="706.6"/>
	<line class="st0" x1="233.4" y1="693.7" x2="260.6" y2="706.3"/>
	<line class="st0" x1="271.3" y1="693.9" x2="298.7" y2="706.1"/>
	<line class="st0" x1="309.2" y1="694.1" x2="336.8" y2="705.9"/>
	<line class="st0" x1="347.1" y1="694.4" x2="374.9" y2="705.6"/>
	<line class="st0" x1="385" y1="694.6" x2="413" y2="705.4"/>
	<line class="st0" x1="422.9" y1="694.9" x2="451.1" y2="705.1"/>
	<line class="st0" x1="460.7" y1="695.4" x2="489.3" y2="704.6"/>
	<line class="st0" x1="498.6" y1="695.9" x2="527.4" y2="704.1"/>
	<line class="st0" x1="536.4" y1="696.6" x2="565.6" y2="703.4"/>
	<line class="st0" x1="574.3" y1="696.9" x2="603.7" y2="703.1"/>
	<line class="st0" x1="612.2" y1="697.4" x2="641.8" y2="702.6"/>
	<line class="st0" x1="650.2" y1="697.7" x2="679.8" y2="702.3"/>
	<line class="st0" x1="688" y1="699" x2="718" y2="701"/>
	<line class="st0" x1="726" y1="699.2" x2="756" y2="700.8"/>
	<line class="st0" x1="764" y1="700" x2="794" y2="700"/>
	<line class="st0" x1="802" y1="700.8" x2="832" y2="699.2"/>
	<line class="st0" x1="840.1" y1="701.3" x2="869.9" y2="698.7"/>
	<line class="st0" x1="878.2" y1="702.6" x2="907.8" y2="697.4"/>
	<line class="st0" x1="916.4" y1="703.6" x2="945.6" y2="696.4"/>
	<line class="st0" x1="954.9" y1="705.1" x2="983.1" y2="694.9"/>
	<line class="st0" x1="993.3" y1="706.1" x2="1020.7" y2="693.9"/>
	<line class="st0" x1="1032.3" y1="707.9" x2="1057.7" y2="692.1"/>
	<line class="st0" x1="1071.3" y1="709.4" x2="1094.7" y2="690.6"/>
	<line class="st0" x1="1110.6" y1="710.8" x2="1131.4" y2="689.2"/>
	<line class="st0" x1="1149.6" y1="711.7" x2="1168.4" y2="688.3"/>
	<line class="st0" x1="1189.3" y1="712.9" x2="1204.7" y2="687.1"/>
	<line class="st0" x1="1228" y1="713.2" x2="1242" y2="686.8"/>
	<line class="st0" x1="1267.1" y1="713.8" x2="1278.9" y2="686.2"/>
	<line class="st0" x1="1306.6" y1="714.3" x2="1315.4" y2="685.7"/>
	<line class="st0" x1="1345.9" y1="714.7" x2="1352.1" y2="685.3"/>
	<line class="st0" x1="1384.7" y1="714.8" x2="1389.3" y2="685.2"/>
	<line class="st0" x1="1424.5" y1="715" x2="1425.5" y2="685"/>
	<line class="st0" x1="1463" y1="715" x2="1463" y2="685"/>
	<line class="st0" x1="1502" y1="715" x2="1500" y2="685"/>
</g>
<circle class="st1" cx="1140" cy="360" r="133"/>
</svg>
